<?xml version="1.0" encoding="UTF-8"?><svg id="Logo_White_Glow" xmlns="http://www.w3.org/2000/svg" viewBox="0 0 340.16 340.16"><g style="opacity:.44;"><path d="M60.67,137.48l5.03-1.36c4.14-1.12,6.74-2.24,7.79-3.36,1.45-1.53,1.91-3.24,1.38-5.16-.25-.89-.62-1.64-1.11-2.25-.49-.61-1.38-1.4-2.68-2.36-1.58-1.21-2.51-2.3-2.78-3.27-.4-1.41.19-2.82,1.77-4.23l3.21-2.83c2.23-2,3.78-4.2,4.65-6.6.87-2.4.99-4.73.36-7-.9-3.21-2.91-5.47-6.03-6.77-3.12-1.3-6.77-1.39-10.93-.26-4.25,1.15-8.07,3.2-11.46,6.14-3.39,2.94-5.85,6.29-7.37,10.04-1.53,3.75-1.82,7.32-.87,10.7.4,1.44,1.07,2.63,2,3.57.93.94,2.25,1.75,3.95,2.42,1.08.39,1.8.74,2.16,1.05s.63.78.8,1.41c.27.97.14,1.9-.4,2.79-.54.89-1.33,1.48-2.37,1.76-1.72.46-3.53.27-5.44-.59-1.91-.85-3.61-2.2-5.12-4.02s-2.6-3.94-3.28-6.36c-1.29-4.6-.97-9.39.96-14.36,1.93-4.98,5.12-9.42,9.57-13.32,4.45-3.9,9.52-6.62,15.21-8.16,4.31-1.17,8.28-1.46,11.91-.9,3.63.57,6.7,1.96,9.23,4.16,2.53,2.21,4.28,5.07,5.26,8.59,1.47,5.26.47,10.51-3,15.74-1.67,2.48-3.56,4.4-5.66,5.78,1.54,1.16,2.73,2.3,3.57,3.42.84,1.11,1.47,2.4,1.88,3.87.67,2.41.64,4.77-.11,7.07-.75,2.3-2.13,4.29-4.15,5.97-1.11.9-2.41,1.66-3.91,2.29-1.49.63-3.73,1.34-6.71,2.15l-8.58,2.32c-1.01.27-1.78.44-2.29.51-.51.06-1.06.04-1.63-.07-1.44-.38-2.37-1.33-2.79-2.82-.17-.61-.24-1.29-.21-2.04.03-.75.18-1.88.46-3.39l6.45-37.55c.37-2.04.79-3.45,1.26-4.25.47-.8,1.22-1.34,2.23-1.61.99-.27,1.9-.18,2.73.27.84.44,1.38,1.11,1.63,2,.19.69.13,2.02-.2,3.99l-6.36,36.9Z" style="fill:#fff;"/><path d="M89.39,126.76c-.72-2.58-.98-5.22-.78-7.92.2-2.71.82-5.29,1.86-7.74,1.04-2.46,2.41-4.52,4.11-6.19,1.7-1.67,3.59-2.78,5.68-3.35,1.94-.53,3.73-.57,5.35-.13,1.62.44,3.02,1.33,4.2,2.66,1.18,1.34,2.07,3.08,2.67,5.25.98,3.52,1.15,7.11.49,10.77-.66,3.66-2,6.83-4.03,9.49-2.03,2.67-4.42,4.37-7.18,5.12-2.85.77-5.39.43-7.65-1.02-2.25-1.45-3.82-3.76-4.72-6.95ZM96.89,124.82c.32,1.14.84,1.96,1.57,2.46.73.5,1.56.63,2.49.38,1.92-.52,3.32-2.97,4.21-7.35.7-3.47.69-6.47-.02-9.02-.34-1.22-.84-2.08-1.5-2.59-.66-.51-1.45-.64-2.38-.38-1.13.3-2.07,1.14-2.82,2.51s-1.33,3.29-1.72,5.79c-.49,3.35-.43,6.09.16,8.23Z" style="fill:#fff;"/><path d="M172.25,104.07c-.19-.69-.66-1.24-1.41-1.63-.75-.39-1.47-.5-2.18-.31-.51.14-.97.4-1.39.8-.42.4-1.07,1.18-1.96,2.34-2.21,2.81-3.66,4.56-4.32,5.26-.67.7-1.31,1.14-1.93,1.3-.34.09-.69.05-1.06-.14-.37-.18-.6-.43-.68-.73-.22-.8-.19-2.05.09-3.74l5.83-33.9c.31-1.81.38-3.04.2-3.67-.25-.89-.75-1.52-1.51-1.92-.76-.39-1.61-.46-2.54-.21-.96.26-1.64.74-2.05,1.43-.41.69-.8,2.03-1.15,4l-2.46,14.12c-4.59,1.9-8.58,4.51-11.96,7.84-3.39,3.33-5.8,6.96-7.25,10.88-.93,2.53-1.36,4.97-1.28,7.32-.4.49-.85,1.08-1.36,1.78-1.48,1.95-2.63,3.34-3.45,4.17-.81.83-1.57,1.34-2.28,1.53-.87.24-1.43-.09-1.68-.98-.15-.53-.11-1.46.12-2.81l5.94-34.65c.33-1.73.4-2.95.2-3.68-.25-.89-.75-1.52-1.51-1.92-.76-.39-1.61-.46-2.53-.21-.96.26-1.64.74-2.05,1.43-.41.69-.8,2.03-1.15,4l-5.94,34.33c-.3,1.84-.47,3.35-.49,4.51s.1,2.21.35,3.12c.51,1.83,1.54,3.16,3.09,3.99,1.55.83,3.31.98,5.28.45,3.28-.89,6.58-3.42,9.92-7.57.58.71,1.23,1.33,2.02,1.81,1.9,1.17,4.02,1.44,6.36.8,2.87-.78,5.59-2.81,8.16-6.1.77,1.13,1.64,1.88,2.6,2.25.97.36,2.08.38,3.35.03,1.63-.44,3.26-1.28,4.89-2.51,1.63-1.23,3.49-3.08,5.58-5.56,1.45-1.73,2.47-3.2,3.04-4.4.57-1.2.76-2.17.55-2.92ZM149.87,109.68c-.94,1.63-1.94,3.01-2.99,4.16-1.06,1.15-2.01,1.84-2.85,2.07-.76.21-1.44.12-2.05-.27-.61-.39-1.03-1-1.26-1.83-.5-1.77-.28-3.83.63-6.18.92-2.35,2.36-4.63,4.33-6.85,1.97-2.22,4.18-4.03,6.64-5.44l-2.44,14.34Z" style="fill:#fff;"/><path d="M256.63,69.43l-.34,1.88c-.34,1.91-.73,3.23-1.14,3.95-.42.72-1.11,1.22-2.06,1.48-.93.25-1.78.18-2.54-.23-.76-.4-1.27-1.05-1.52-1.94-.18-.64-.11-1.85.21-3.63l2.03-11.91c.26-1.56.5-2.67.71-3.32.21-.65.49-1.14.84-1.46.35-.32.85-.56,1.5-.74.99-.27,1.86-.21,2.61.16.76.38,1.27,1.04,1.53,1.98.11.39.15.7.13.95l-.02,1.88c-.03.45.04.96.2,1.51.21.75.54,1.46.99,2.15.45.68,1.38,1.86,2.78,3.54,1.26,1.48,2.58,3.16,3.96,5.05,1.44,2.02,2.4,3.87,2.86,5.53.62,2.22.65,4.41.09,6.59-.56,2.18-1.63,4.06-3.22,5.63-1.59,1.58-3.52,2.67-5.81,3.29-2.03.55-4.06.61-6.1.2-2.04-.42-3.83-1.23-5.36-2.44-1.54-1.21-2.53-2.62-2.98-4.22-.33-1.16-.25-2.21.24-3.13.48-.92,1.26-1.53,2.33-1.82,1.44-.39,2.61.05,3.51,1.33l1.12,1.57c1.44,2.02,3.18,2.76,5.21,2.21,1.61-.43,2.77-1.32,3.5-2.67.73-1.34.88-2.78.46-4.3-.36-1.3-1.84-3.64-4.42-7.03-.59-.8-1.02-1.48-1.3-2.06Z" style="fill:#fff;"/><path d="M170.08,10.75C81.5,10.75,9.43,81.64,9.43,168.78s72.07,158.03,160.65,158.03,160.65-70.89,160.65-158.03S258.66,10.75,170.08,10.75ZM17.15,169.78s.08,0,.12-.02l189.64-51.32c.48-.13.92-.35,1.29-.64,1.24-.78,2.04-2.2,1.56-3.99-2.94-11.12-3.52-22.18-1.73-32.89h0s23.36-6.32,23.36-6.32l-3.18,18.52c-.32,1.88-.38,3.19-.17,3.94.26.91.8,1.59,1.64,2.04.84.44,1.75.53,2.73.27,1.01-.27,1.75-.81,2.21-1.6.46-.79.87-2.21,1.24-4.25l6.97-40.42c.8-4.63.93-7.88.4-9.77-.42-1.5-1.15-2.69-2.21-3.58-1.05-.89-2.35-1.46-3.88-1.7-1.54-.24-3.18-.12-4.92.35-1.55.42-3.17,1.06-4.87,1.92-1.7.86-3.42,1.95-5.18,3.26-1.75,1.31-3.44,2.76-5.05,4.36-7.6,7.48-12.82,16.55-15.66,27.22l-.03.23-9.76,2.64c-2.06.56-3.39,1.1-4,1.62-1.2,1.01-1.59,2.26-1.18,3.76.32,1.14,1.03,1.85,2.15,2.15.55.12,1.1.14,1.65.07.55-.08,1.38-.26,2.48-.56l7.14-1.93.13-.03c-1.18,9.81-.65,19.67,1.54,29.42L17.29,162.39C20.71,82.38,87.93,18.33,170.08,18.33c57.65,0,107.94,31.54,134,78L17.24,173.96c-.05-1.39-.08-2.78-.09-4.18ZM209.98,73.07c.69-2.18,1.55-4.34,2.58-6.46,1.03-2.13,2.28-4.26,3.77-6.41,1.49-2.15,2.99-4.05,4.49-5.71,2.04-2.25,4.18-4.22,6.44-5.9,2.26-1.68,4.16-2.73,5.71-3.15,1.55-.42,2.49-.05,2.81,1.12.19.69.1,2.15-.28,4.37l-2.75,15.99-22.77,6.16ZM170.08,319.23c-32.5,0-62.65-10.03-87.45-27.09l226.8-61.38c-24.05,52.13-77.47,88.47-139.35,88.47ZM312.96,222.43l-237.69,64.32c-32.29-25.16-54.04-62.85-57.61-105.54l289.83-78.43c9.94,19.94,15.53,42.34,15.53,66,0,11.6-1.35,22.9-3.89,33.75l-218.62,59.17,13.41-77.66c.03-.28.08-.63.16-1.05.07-.42.14-.81.21-1.15.9-4.82,1.04-8.33.42-10.53-.73-2.6-2.32-4.3-4.79-5.08-2.46-.79-5.73-.63-9.8.47-7.48,2.02-14.42,5.32-20.83,9.88-6.41,4.56-11.77,9.85-16.08,15.86-4.31,6.01-7.28,12.4-8.92,19.17-1.64,6.77-1.62,13.15.06,19.16,1.04,3.7,2.65,7.07,4.84,10.11,2.19,3.04,4.73,5.43,7.63,7.18,2.33,1.31,4.55,2.17,6.64,2.6,2.09.43,3.97.42,5.65-.04,1.98-.54,3.47-1.54,4.45-3.02.98-1.48,1.24-3.07.76-4.77-.32-1.15-.85-2.02-1.59-2.6-.74-.58-2.09-1.28-4.07-2.09-5.65-2.19-9.19-5.86-10.63-11.01-1.54-5.5-1.17-11.33,1.1-17.49,2.27-6.16,6.05-11.85,11.35-17.08,5.3-5.23,11.42-9.19,18.39-11.88l1.35-.45.51-.22-14.35,83.08-.61,3.39c-.44,2.54-.44,4.59,0,6.14.56,2,1.73,3.38,3.5,4.14,1.77.76,3.86.84,6.26.24l2.44-.66,216.74-58.64c-.56,1.58-1.13,3.16-1.73,4.72Z" style="fill:#fff;"/><path d="M190.93,227.45c-2.09,0-4.1-.84-5.59-2.36-2.61-2.65-4.3-6.34-2.35-29.71.93-11.06,2.27-21.48,2.33-21.91.49-3.78,4-6.46,7.85-5.98,3.85.48,6.57,3.94,6.08,7.73-1.66,12.77-2.98,27.67-3.08,36.03,5.51-2.99,13.27-8.78,17.31-17.65,7.45-16.36,6.96-27.89,6.95-28.01-.24-3.81,2.7-7.06,6.57-7.3,3.86-.23,7.2,2.68,7.44,6.48.04.59.82,14.77-8.15,34.47-8.45,18.56-27.94,27.55-34.65,28.17-.24.02-.48.03-.72.03ZM196.53,217.18h0,0Z" style="fill:#fff;"/><path d="M146.84,238.6c-1.17,0-2.33-.12-3.48-.37-12.01-2.6-18.46-17.88-14.68-34.79,1.67-7.48,5.14-14.21,9.76-18.94,5.42-5.55,12.12-7.95,18.4-6.59,12.01,2.6,18.46,17.88,14.68,34.79-1.67,7.48-5.14,14.21-9.76,18.94-4.42,4.53-9.71,6.96-14.92,6.96ZM153.34,191.35c-1.32,0-3.1,1-4.78,2.72-2.81,2.88-5.06,7.38-6.17,12.33-1.11,4.96-.98,9.96.35,13.74.89,2.54,2.29,4.3,3.64,4.6,1.35.29,3.37-.73,5.26-2.67,2.81-2.88,5.06-7.38,6.17-12.33,1.11-4.96.98-9.97-.35-13.74-.89-2.54-2.29-4.3-3.64-4.6-.15-.03-.31-.05-.48-.05Z" style="fill:#fff;"/><path d="M264.53,206.77c-9.06,0-17.88-5.37-20.86-13.25-4.12-10.88-1.84-18.41,0-24.45l.27-.88c2.75-9.17,9.34-17.34,16.79-20.82,5.89-2.75,12.29-1.96,17.13,2.12,7.4,6.24,4.68,17.01-.98,24.38-5.15,6.71-15.15,10.68-22.17,12.76.22.8.49,1.65.83,2.54,1.26,3.34,6.63,5.8,10.82,4.98,7.12-1.4,10.13-4.09,14.67-8.16.53-.47,1.06-.95,1.61-1.43,2.6-2.29,6.6-2.08,8.93.48,2.33,2.56,2.11,6.49-.49,8.79-.52.46-1.03.92-1.53,1.37-4.99,4.47-10.15,9.09-20.71,11.16-1.42.28-2.86.41-4.29.41ZM267.78,158.21c-.46,0-1,.11-1.64.41-3.55,1.66-8.16,6.7-10.08,13.1l-.27.91c-.06.19-.11.38-.17.56,5.73-2.2,9.58-4.77,11.15-6.82,2.59-3.37,3.24-6.68,2.84-7.44-.3-.25-.87-.73-1.82-.73Z" style="fill:#fff;"/></g><g id="Layer-3_Low"><line x1="92.4" y1="270.89" x2="319.88" y2="208.16" style="fill:none; stroke:#f9e8a5; stroke-linecap:round; stroke-linejoin:round; stroke-width:9px;"/><path d="M77.46,245.24c-10.98-3.02-14.44-10.46-16.05-14.89-.81-2.24-1.32-6-1.41-8.38-.44-12.73,6.19-23.66,14.86-32.99,8.76-9.42,20.84-16.48,33.7-16.46l-17.29,100,227.83-62.33" style="fill:none; stroke:#f9e8a5; stroke-linecap:round; stroke-linejoin:round; stroke-width:9px;"/><path d="M146.78,186.76c2.81-2.01,7.22-2.81,10.61-1.61,2.22.79,8.14,2.92,8.31,16.72.1,7.44-2.2,16.58-7.33,23.26-2.15,2.79-8.17,9-14.9,6.83-3.19-1.03-6.75-5.07-8.05-10.34-1.51-6.13-1.06-11.63.05-16.79,1.38-6.39,4.52-13.2,11.31-18.06Z" style="fill:none; stroke:#f9e8a5; stroke-linecap:round; stroke-linejoin:round; stroke-width:9px;"/><path d="M191.97,173.76c-1.6,13.65-3.29,25.04-3.1,38.78.03,2.35.28,6.33,1.05,8.55,7.09-2.88,13.42-6.14,19.27-11.07,2.64-2.23,6.23-5.79,8.14-8.67,3.23-4.86,5.5-10.28,7.08-16.62,1.58-6.35,2.47-12.9,2.79-20.28" style="fill:none; stroke:#f9e8a5; stroke-linecap:round; stroke-linejoin:round; stroke-width:9px;"/><path d="M247.9,182.16c6.15-1.7,17.65-4.48,23.61-11.42,3.11-3.63,4.38-7.07,4.45-11.85.06-3.86-2.52-7.25-7.62-7.25-1.98,0-4.54.98-6.24,1.99-4.83,2.87-8.66,8.18-11.36,13.82-1.96,4.09-2.84,8.58-2.96,13.12-.1,3.69.34,8.38,2.05,11.89,2.62,5.4,5.96,7.96,11.93,8.63,2.04.23,4.63.09,7.13-.43,2.26-.47,5.38-1.54,8.14-3.27,4.62-2.91,5.96-4.35,10.76-8.59" style="fill:none; stroke:#f9e8a5; stroke-linecap:round; stroke-linejoin:round; stroke-width:9px;"/><line x1="316.92" y1="208.97" x2="322.12" y2="207.54" style="fill:none; stroke:#f9e8a5; stroke-linejoin:round; stroke-width:9px;"/></g><g id="Layer-3_Top"><path d="M153.02,111.75c.34,1.52,1.02,3.78,3.66,4.49,2.92.79,6.84-3.62,7.36-4.22,1.89-2.15,2.21-2.81,5.2-6.7" style="fill:none; stroke:#f9e8a5; stroke-linecap:round; stroke-miterlimit:10; stroke-width:5px;"/><path d="M103.3,104.99c2.85.41,4.28,2.86,5.14,5.05.91,2.32,1,6.51.85,8.08-.68,7.28-3.35,9.99-3.79,10.57-2.72,3.57-7.19,3.87-8.92,2.96-2.42-1.27-3.84-4.69-4.13-7.78-.25-2.67-.32-4.44.26-7.47.42-2.16,1.32-4.51,2.68-6.81,1.71-2.9,4.65-5.08,7.91-4.61Z" style="fill:none; stroke:#f9e8a5; stroke-linecap:round; stroke-miterlimit:10; stroke-width:5px;"/><path d="M156.68,89.67c-1.89.73-3.98,1.87-5.54,2.84-3.05,1.9-4.84,3.42-5.71,4.25-3.14,2.95-4.74,5.15-6.48,8.33-1.74,3.19-2.44,6.06-2.28,8.61.1,1.53.34,3.89,2.16,5.34,1.38,1.1,3.47,1.96,6.19.76,2.35-1.03,4.34-3.52,5.91-5.61s2.31-4.14,2.77-6.71l6.55-36.83" style="fill:none; stroke:#f9e8a5; stroke-linecap:round; stroke-miterlimit:10; stroke-width:5px;"/><path d="M127.35,79.43l-6.81,39.28c-.42,2.7.06,5.34,1.71,6.41,1.32.85,4,.63,5.93-1.09,5.62-5.01,7.38-8.22,8.54-9.64" style="fill:none; stroke:#f9e8a5; stroke-linecap:round; stroke-miterlimit:10; stroke-width:5px;"/><path d="M46.82,129.14c-2.59-.74-5.18-2.27-6.87-4.37-2.21-2.76-3.63-6.27-2.77-11.83,1.06-6.9,4.52-11.88,7-14.4,2.86-2.91,9.02-7.01,14.25-8.92,4.1-1.5,7.24-1.61,9.23-1.54,2.84.11,5.65.85,8.13,2.25,2.83,1.59,4.91,4.35,6.05,7.39s1.13,5.43.34,8.57c-.63,2.49-2.18,5.29-3.86,7.23-1.68,1.94-4.22,3.98-6.36,5.62,3.33,1.32,6.09,4.6,7.03,8.06.41,1.49.51,3.09.11,4.58-.4,1.49-1.41,4.21-4.68,5.46-4.51,1.73-7.59,2.61-12.71,4.04-1.25.35-4.43,1.26-5.69,1.59l7.55-45.2" style="fill:none; stroke:#f9e8a5; stroke-linecap:round; stroke-linejoin:round; stroke-width:5px;"/><line x1="14.23" y1="178.9" x2="309.38" y2="98.95" style="fill:none; stroke:#f9e8a5; stroke-linecap:round; stroke-linejoin:round; stroke-width:5px;"/><line x1="75.83" y1="290.7" x2="315.45" y2="225.79" style="fill:none; stroke:#f9e8a5; stroke-linecap:round; stroke-linejoin:round; stroke-width:5px;"/><path d="M13.86,167.49l191.79-51.95c-3.46-14.16-3.55-27.82-.19-40.47,3.37-12.65,11.16-24.48,22.65-30.75,2.27-1.24,5.03-2.65,7.59-2.21,2.55.43,4.44,3.05,3.87,6.67l-8.26,48.63" style="fill:none; stroke:#f9e8a5; stroke-linecap:round; stroke-linejoin:round; stroke-width:5px;"/><line x1="188.87" y1="83.14" x2="235.94" y2="70.13" style="fill:none; stroke:#f9e8a5; stroke-linecap:round; stroke-linejoin:round; stroke-width:5px;"/><path d="M251.96,74.97l2.99-17.29c-.5,3.74,1.73,7.28,4.15,10.17s5.25,5.66,6.34,9.27c1.1,3.65.08,7.94-2.77,10.46-2.85,2.53-7.13,3.15-10.3,1.03-1.46-.98-3.14-3.39-3.9-4.95" style="fill:none; stroke:#f9e8a5; stroke-linecap:round; stroke-linejoin:round; stroke-width:5px;"/><ellipse cx="170.16" cy="168.84" rx="156.9" ry="154.15" style="fill:none; stroke:#f9e8a5; stroke-linecap:round; stroke-linejoin:round; stroke-width:5px;"/></g><g id="Layer-2_Low"><line x1="92.4" y1="270.53" x2="319.88" y2="207.79" style="fill:none; stroke:#fffae1; stroke-linecap:round; stroke-linejoin:round; stroke-width:6px;"/><path d="M77.46,244.87c-10.98-3.02-14.44-10.46-16.05-14.89-.81-2.24-1.32-6-1.41-8.38-.44-12.73,6.19-23.66,14.86-32.99,8.76-9.42,20.84-16.48,33.7-16.46l-17.29,100,227.83-62.33" style="fill:none; stroke:#fffae1; stroke-linecap:round; stroke-linejoin:round; stroke-width:6px;"/><path d="M146.78,186.39c2.81-2.01,7.22-2.81,10.61-1.61,2.22.79,8.14,2.92,8.31,16.72.1,7.44-2.2,16.58-7.33,23.26-2.15,2.79-8.17,9-14.9,6.83-3.19-1.03-6.75-5.07-8.05-10.34-1.51-6.13-1.06-11.63.05-16.79,1.38-6.39,4.52-13.2,11.31-18.06Z" style="fill:none; stroke:#fffae1; stroke-linecap:round; stroke-linejoin:round; stroke-width:6px;"/><path d="M191.97,173.39c-1.6,13.65-3.29,25.04-3.1,38.78.03,2.35.28,6.33,1.05,8.55,7.09-2.88,13.42-6.14,19.27-11.07,2.64-2.23,6.23-5.79,8.14-8.67,3.23-4.86,5.5-10.28,7.08-16.62,1.58-6.35,2.47-12.9,2.79-20.28" style="fill:none; stroke:#fffae1; stroke-linecap:round; stroke-linejoin:round; stroke-width:6px;"/><path d="M247.9,181.79c6.15-1.7,17.65-4.48,23.61-11.42,3.11-3.63,4.38-7.07,4.45-11.85.06-3.86-2.52-7.25-7.62-7.25-1.98,0-4.54.98-6.24,1.99-4.83,2.87-8.66,8.18-11.36,13.82-1.96,4.09-2.84,8.58-2.96,13.12-.1,3.69.34,8.38,2.05,11.89,2.62,5.4,5.96,7.96,11.93,8.63,2.04.23,4.63.09,7.13-.43,2.26-.47,5.38-1.54,8.14-3.27,4.62-2.91,5.96-4.35,10.76-8.59" style="fill:none; stroke:#fffae1; stroke-linecap:round; stroke-linejoin:round; stroke-width:6px;"/><line x1="316.92" y1="208.6" x2="322.12" y2="207.17" style="fill:none; stroke:#fffae1; stroke-linejoin:round; stroke-width:6px;"/></g><g id="Layer-2_Top"><path d="M153.02,111.38c.34,1.52,1.02,3.78,3.66,4.49,2.92.79,6.84-3.62,7.36-4.22,1.89-2.15,2.21-2.81,5.2-6.7" style="fill:none; stroke:#fff6c2; stroke-linecap:round; stroke-miterlimit:10; stroke-width:3px;"/><path d="M103.3,104.63c2.85.41,4.28,2.86,5.14,5.05.91,2.32,1,6.51.85,8.08-.68,7.28-3.35,9.99-3.79,10.57-2.72,3.57-7.19,3.87-8.92,2.96-2.42-1.27-3.84-4.69-4.13-7.78-.25-2.67-.32-4.44.26-7.47.42-2.16,1.32-4.51,2.68-6.81,1.71-2.9,4.65-5.08,7.91-4.61Z" style="fill:none; stroke:#fff6c2; stroke-linecap:round; stroke-miterlimit:10; stroke-width:3px;"/><path d="M156.68,89.3c-1.89.73-3.98,1.87-5.54,2.84-3.05,1.9-4.84,3.42-5.71,4.25-3.14,2.95-4.74,5.15-6.48,8.33-1.74,3.19-2.44,6.06-2.28,8.61.1,1.53.34,3.89,2.16,5.34,1.38,1.1,3.47,1.96,6.19.76,2.35-1.03,4.34-3.52,5.91-5.61,1.57-2.08,2.31-4.14,2.77-6.71l6.55-36.83" style="fill:none; stroke:#fff6c2; stroke-linecap:round; stroke-miterlimit:10; stroke-width:3px;"/><path d="M127.35,79.06l-6.81,39.28c-.42,2.7.06,5.34,1.71,6.41,1.32.85,4,.63,5.93-1.09,5.62-5.01,7.38-8.22,8.54-9.64" style="fill:none; stroke:#fff6c2; stroke-linecap:round; stroke-miterlimit:10; stroke-width:3px;"/><path d="M46.82,128.77c-2.59-.74-5.18-2.27-6.87-4.37-2.21-2.76-3.63-6.27-2.77-11.83,1.06-6.9,4.52-11.88,7-14.4,2.86-2.91,9.02-7.01,14.25-8.92,4.1-1.5,7.24-1.61,9.23-1.54,2.84.11,5.65.85,8.13,2.25,2.83,1.59,4.91,4.35,6.05,7.39,1.14,3.05,1.13,5.43.34,8.57-.63,2.49-2.18,5.29-3.86,7.23-1.68,1.94-4.22,3.98-6.36,5.62,3.33,1.32,6.09,4.6,7.03,8.06.41,1.49.51,3.09.11,4.58-.4,1.49-1.41,4.21-4.68,5.46-4.51,1.73-7.59,2.61-12.71,4.04-1.25.35-4.43,1.26-5.69,1.59l7.55-45.2" style="fill:none; stroke:#fff6c2; stroke-linecap:round; stroke-linejoin:round; stroke-width:3px;"/><line x1="14.23" y1="178.53" x2="309.38" y2="98.58" style="fill:none; stroke:#fff6c2; stroke-linecap:round; stroke-linejoin:round; stroke-width:3px;"/><line x1="75.83" y1="290.33" x2="315.45" y2="225.42" style="fill:none; stroke:#fff6c2; stroke-linecap:round; stroke-linejoin:round; stroke-width:3px;"/><path d="M13.86,167.12l191.79-51.95c-3.46-14.16-3.55-27.82-.19-40.47,3.37-12.65,11.16-24.48,22.65-30.75,2.27-1.24,5.03-2.65,7.59-2.21,2.55.43,4.44,3.05,3.87,6.67l-8.26,48.63" style="fill:none; stroke:#fff6c2; stroke-linecap:round; stroke-linejoin:round; stroke-width:3px;"/><line x1="188.87" y1="82.77" x2="235.94" y2="69.76" style="fill:none; stroke:#fff6c2; stroke-linecap:round; stroke-linejoin:round; stroke-width:3px;"/><path d="M251.96,74.6l2.99-17.29c-.5,3.74,1.73,7.28,4.15,10.17,2.43,2.89,5.25,5.66,6.34,9.27,1.1,3.65.08,7.94-2.77,10.46s-7.13,3.15-10.3,1.03c-1.46-.98-3.14-3.39-3.9-4.95" style="fill:none; stroke:#fff6c2; stroke-linecap:round; stroke-linejoin:round; stroke-width:3px;"/><ellipse cx="170.16" cy="168.47" rx="156.9" ry="154.15" style="fill:none; stroke:#fff6c2; stroke-linecap:round; stroke-linejoin:round; stroke-width:3px;"/></g><g id="Layer-1_Low"><line x1="91.83" y1="271.11" x2="320.76" y2="208.34" style="fill:none; stroke:#fff; stroke-linecap:round; stroke-linejoin:round; stroke-width:4px;"/><path d="M77.46,244.87c-10.98-3.02-14.44-10.46-16.05-14.89-.81-2.24-1.32-6-1.41-8.38-.44-12.73,6.19-23.66,14.86-32.99,8.76-9.42,20.84-16.48,33.7-16.46l-17.29,100,228.25-62.45" style="fill:none; stroke:#fff; stroke-linecap:round; stroke-linejoin:round; stroke-width:4px;"/><path d="M146.78,186.39c2.81-2.01,7.22-2.81,10.61-1.61,2.22.79,8.14,2.92,8.31,16.72.1,7.44-2.2,16.58-7.33,23.26-2.15,2.79-8.17,9-14.9,6.83-3.19-1.03-6.75-5.07-8.05-10.34-1.51-6.13-1.06-11.63.05-16.79,1.38-6.39,4.52-13.2,11.31-18.06Z" style="fill:none; stroke:#fff; stroke-linecap:round; stroke-linejoin:round; stroke-width:4px;"/><path d="M191.97,173.39c-1.6,13.65-3.29,25.04-3.1,38.78.03,2.35.28,6.33,1.05,8.55,7.09-2.88,13.42-6.14,19.27-11.07,2.64-2.23,6.23-5.79,8.14-8.67,3.23-4.86,5.5-10.28,7.08-16.62,1.58-6.35,2.47-12.9,2.79-20.28" style="fill:none; stroke:#fff; stroke-linecap:round; stroke-linejoin:round; stroke-width:4px;"/><path d="M247.9,181.79c6.15-1.7,17.65-4.48,23.61-11.42,3.11-3.63,4.38-7.07,4.45-11.85.06-3.86-2.52-7.25-7.62-7.25-1.98,0-4.54.98-6.24,1.99-4.83,2.87-8.66,8.18-11.36,13.82-1.96,4.09-2.84,8.58-2.96,13.12-.1,3.69.34,8.38,2.05,11.89,2.62,5.4,5.96,7.96,11.93,8.63,2.04.23,4.63.09,7.13-.43,2.26-.47,5.38-1.54,8.14-3.27,4.62-2.91,5.96-4.35,10.76-8.59" style="fill:none; stroke:#fff; stroke-linecap:round; stroke-linejoin:round; stroke-width:4px;"/></g><path d="M153.02,111.38c.34,1.52,1.02,3.78,3.66,4.49,2.92.79,6.84-3.62,7.36-4.22,1.89-2.15,2.21-2.81,5.2-6.7" style="fill:none; stroke:#fff; stroke-linecap:round; stroke-miterlimit:10; stroke-width:2px;"/><path d="M103.3,104.63c2.85.41,4.28,2.86,5.14,5.05.91,2.32,1,6.51.85,8.08-.68,7.28-3.35,9.99-3.79,10.57-2.72,3.57-7.19,3.87-8.92,2.96-2.42-1.27-3.84-4.69-4.13-7.78-.25-2.67-.32-4.44.26-7.47.42-2.16,1.32-4.51,2.68-6.81,1.71-2.9,4.65-5.08,7.91-4.61Z" style="fill:none; stroke:#fff; stroke-linecap:round; stroke-miterlimit:10; stroke-width:2px;"/><path d="M156.68,89.3c-1.89.73-3.98,1.87-5.54,2.84-3.05,1.9-4.84,3.42-5.71,4.25-3.14,2.95-4.74,5.15-6.48,8.33-1.74,3.19-2.44,6.06-2.28,8.61.1,1.53.34,3.89,2.16,5.34,1.38,1.1,3.47,1.96,6.19.76,2.35-1.03,4.34-3.52,5.91-5.61,1.57-2.08,2.31-4.14,2.77-6.71l6.55-36.83" style="fill:none; stroke:#fff; stroke-linecap:round; stroke-miterlimit:10; stroke-width:2px;"/><path d="M127.35,79.06l-6.81,39.28c-.42,2.7.06,5.34,1.71,6.41,1.32.85,4,.63,5.93-1.09,5.62-5.01,7.38-8.22,8.54-9.64" style="fill:none; stroke:#fff; stroke-linecap:round; stroke-miterlimit:10; stroke-width:2px;"/><path d="M46.82,128.77c-2.59-.74-5.18-2.27-6.87-4.37-2.21-2.76-3.63-6.27-2.77-11.83,1.06-6.9,4.52-11.88,7-14.4,2.86-2.91,9.02-7.01,14.25-8.92,4.1-1.5,7.24-1.61,9.23-1.54,2.84.11,5.65.85,8.13,2.25,2.83,1.59,4.91,4.35,6.05,7.39,1.14,3.05,1.13,5.43.34,8.57-.63,2.49-2.18,5.29-3.86,7.23-1.68,1.94-4.22,3.98-6.36,5.62,3.33,1.32,6.09,4.6,7.03,8.06.41,1.49.51,3.09.11,4.58-.4,1.49-1.41,4.21-4.68,5.46-4.51,1.73-7.59,2.61-12.71,4.04-1.25.35-4.43,1.26-5.69,1.59l7.55-45.2" style="fill:none; stroke:#fff; stroke-linecap:round; stroke-linejoin:round; stroke-width:2px;"/><line x1="14.23" y1="178.53" x2="309.38" y2="98.58" style="fill:none; stroke:#fff; stroke-linecap:round; stroke-linejoin:round; stroke-width:2px;"/><line x1="75.83" y1="290.33" x2="315.45" y2="225.42" style="fill:none; stroke:#fff; stroke-linecap:round; stroke-linejoin:round; stroke-width:2px;"/><path d="M13.86,167.12l191.79-51.95c-3.46-14.16-3.55-27.82-.19-40.47,3.37-12.65,11.16-24.48,22.65-30.75,2.27-1.24,5.03-2.65,7.59-2.21,2.55.43,4.44,3.05,3.87,6.67l-8.26,48.63" style="fill:none; stroke:#fff; stroke-linecap:round; stroke-linejoin:round; stroke-width:2px;"/><line x1="188.87" y1="82.77" x2="235.94" y2="69.76" style="fill:none; stroke:#fff; stroke-linecap:round; stroke-linejoin:round; stroke-width:2px;"/><path d="M251.96,74.6l2.99-17.29c-.5,3.74,1.73,7.28,4.15,10.17s5.25,5.66,6.34,9.27c1.1,3.65.08,7.94-2.77,10.46s-7.13,3.15-10.3,1.03c-1.46-.98-3.14-3.39-3.9-4.95" style="fill:none; stroke:#fff; stroke-linecap:round; stroke-linejoin:round; stroke-width:2px;"/><ellipse cx="170.16" cy="168.47" rx="156.9" ry="154.15" style="fill:none; stroke:#fff; stroke-linecap:round; stroke-linejoin:round; stroke-width:2px;"/></svg>