<?xml version="1.0" encoding="UTF-8"?>
<svg id="Layer_1" data-name="Layer 1" xmlns="http://www.w3.org/2000/svg" viewBox="0 0 243.78 243.78">
  <defs>
    <style>
      .cls-1 {
        fill: #fff;
      }

      .cls-2 {
        opacity: .82;
      }
    </style>
  </defs>
  <g class="cls-2">
    <g>
      <path class="cls-1" d="M40.6,106.31c-1.67,0-3.01-.47-3.99-1.41-1.86-1.77-2.23-4.96-1.12-9.75l.1-.61,3.31-19.71c.17-.8.27-1.47.36-2.1.28-1.84.54-3.59,1.96-5.36,1.1-1.29,2.59-1.79,4-1.37,1.48.44,2.54,1.8,2.77,3.56.18,1.25-.01,2.49-.21,3.68l-.08.51c-.48,2.87-1.19,7.07-1.89,11.22-.68,4.06-1.36,8.07-1.81,10.76,0,.07-.03.21-.05.37-.03.18-.07.45-.08.67,2.24-.23,5.47-1.5,6.41-3.35.52-1.23-.11-2.4-1.19-4.21-1.24-2.08-2.95-4.93-.43-8.11.47-.69,1.06-1.4,1.63-2.1.96-1.17,1.87-2.27,2.42-3.5,1.25-2.73,1.05-5.42-.55-7.39-1.81-2.22-4.97-3.12-8.24-2.35-4.97.96-10.04,4.55-12.67,8.94-1.36,2.27-2.72,5.81-1.47,9.82.33.95,1.2,1.85,2.12,2.8.93.96,1.89,1.95,2.46,3.2l.06.14c.55,1.65.15,3.11-1.09,4.01-1.89,1.38-5.04.93-6.83-.35-4.18-2.62-6.56-7.99-6.07-13.69.65-6.76,4.47-13.25,10.48-17.83,6.03-4.6,13.31-6.58,19.99-5.42,3.66.65,6.88,2.8,9.08,6.03,2.21,3.25,3.04,7.23,2.31,10.91-.27,2.39-1.63,4.65-2.82,6.65-.67,1.11-1.3,2.16-1.61,3.03-.24,1.23.28,2.46.87,3.89.65,1.57,1.38,3.34,1.1,5.36-.53,8.72-10.04,11.08-15.72,12.5-1.28.36-2.45.54-3.49.54ZM44.23,68.69c-.35,0-.66.29-.83.48-.91,1.15-1.08,2.28-1.34,3.98-.1.67-.21,1.4-.38,2.2l-3.42,20.35c-.84,3.65-.73,6.16.3,7.14,1.02.97,3.17.63,4.79.18,6.72-1.67,13.28-3.81,13.62-9.98v-.13c.2-1.27-.33-2.56-.9-3.92-.68-1.66-1.46-3.53-1-5.65l.04-.16c.4-1.16,1.12-2.37,1.88-3.65,1.11-1.85,2.26-3.77,2.44-5.56l.02-.14c.61-2.96-.07-6.18-1.86-8.82-1.76-2.6-4.33-4.32-7.22-4.83-5.9-1.02-12.38.76-17.78,4.89-5.38,4.11-8.8,9.88-9.38,15.84-.33,3.81,1.03,8.71,4.79,11.05l.09.06c1.04.76,2.87.86,3.53.37.09-.07.26-.19.09-.75-.38-.78-1.11-1.54-1.89-2.34-1.04-1.08-2.23-2.3-2.78-3.89-1.24-4.01-.64-8.2,1.74-12.16,3.07-5.12,8.76-9.15,14.51-10.25,4.29-1,8.53.27,11.03,3.33,2.32,2.83,2.66,6.61.94,10.35-.71,1.57-1.78,2.87-2.81,4.13-.56.68-1.09,1.32-1.54,1.98-1.3,1.65-.69,2.83.59,4.97,1.1,1.85,2.48,4.15,1.33,6.85-1.67,3.33-6.62,4.96-9.46,5.03h-.14s-.22-.03-.22-.03c-2.38-.55-2.02-3-1.88-3.92l.05-.36c.46-2.76,1.14-6.78,1.82-10.83.7-4.15,1.41-8.35,1.89-11.2l.08-.51c.17-1.03.32-2.01.2-2.85-.1-.77-.46-1.14-.77-1.23-.06-.02-.12-.03-.18-.03Z"/>
      <path class="cls-1" d="M70.34,98.27c-.71,0-1.42-.09-2.12-.27-3.11-.81-5.44-3.26-6.39-6.72l-.04-.13c-1.73-5.98-.34-12.76,3.53-17.26,2.42-2.86,5.98-4.27,9.28-3.65,2.98.55,5.33,2.69,6.42,5.85,2.4,6.6.83,14.49-3.83,19.15-1.94,1.97-4.4,3.03-6.85,3.03ZM64.51,90.36l.04.13c.69,2.5,2.28,4.22,4.39,4.77,2.12.55,4.45-.2,6.24-2.01,3.85-3.86,5.18-10.67,3.17-16.21-.77-2.23-2.29-3.65-4.27-4.01-2.3-.43-4.83.61-6.6,2.71-3.22,3.75-4.41,9.62-2.97,14.62ZM71.18,92.91c-1,0-2.3-.52-3.58-2.53l-.17-.36c-1.26-3.5-.18-8.36.18-9.76.41-1.8,1.65-3.96,3.45-4.66,1.09-.42,2.26-.25,3.29.48,2.62,1.74,2.31,7.17,1.71,10.1-.37,1.83-1.54,6.15-4.34,6.67-.17.03-.35.05-.54.05ZM70.05,88.97c.64.97,1.06,1.12,1.14,1.11.43-.08,1.48-1.47,2.08-4.45.76-3.73.2-6.71-.54-7.2-.4-.28-.57-.21-.67-.17-.65.25-1.44,1.48-1.71,2.68-.64,2.5-1.05,5.89-.31,8.03Z"/>
      <path class="cls-1" d="M88.24,93.57c-1,0-2.04-.25-3.13-.89l-.12-.08c-4.36-3.17-3.49-8.03-2.73-12.31.17-.98.36-2,.48-2.98l2.75-16.29c.17-.85.28-1.55.37-2.19.25-1.63.46-3.03,1.34-4.66.87-1.53,2.38-2.4,3.89-2.21,1.43.17,2.56,1.21,3.02,2.79.43,1.59.2,2.95-.06,4.52-.06.34-.12.69-.17,1.07l-2.54,15.18c-.15.93-.3,1.83-.46,2.72-.27,1.55-.52,3.02-.71,4.58-.07.54-.02.84.02.98.12-.04.33-.14.58-.34,1.89-1.54,2.72-4.2,3.52-6.77.17-.54.34-1.08.51-1.6,1.63-5.09,5.58-9.96,10.83-13.35,2.66-1.48,4.07-3.65,4.5-6.86l.02-.12c.16-.71.28-1.47.39-2.2.37-2.36.75-4.79,2.58-6.57.92-.88,2.1-1.16,3.25-.81,1.26.39,2.27,1.52,2.56,2.88.35,2.19.06,3.7-.32,5.62-.18.91-.38,1.95-.54,3.22l-2.1,12.53c-.09.9-.3,1.97-.5,3-.3,1.53-.75,3.78-.36,4.6.51-.1,1.68-1.39,2.09-1.84.47-.52.92-1,1.37-1.36,1.57-1.38,2.96-1.96,4.19-1.73.59.11,1.41.46,1.97,1.52l.16.4c.58,2.31-.85,4.8-2.15,6.48-2.28,2.94-6.24,5.98-8.99,6.06-.52.07-1.05.11-1.58.16-.88.07-1.71.14-2.48.33-.99.21-1.92.68-2.91,1.18-.77.39-1.56.79-2.41,1.09-1.56.54-3.07.45-4.41.37-.91-.05-1.78-.1-2.51.05-1.15.23-2.31.94-3.55,1.68-1.63.99-3.54,2.15-5.67,2.15ZM86.6,90.26c1.84,1.04,3.42.19,5.84-1.27,1.39-.84,2.82-1.71,4.44-2.04,1.09-.23,2.19-.17,3.25-.11,1.18.07,2.29.13,3.31-.22.67-.24,1.35-.58,2.06-.94,1.11-.56,2.25-1.15,3.57-1.42.94-.23,1.92-.31,2.87-.39.5-.04,1.01-.08,1.51-.15h.19c1.39-.02,4.69-2.19,6.86-4.98,1.19-1.54,1.81-2.98,1.67-3.9-.04.03-.6.11-1.79,1.15-.33.26-.7.67-1.09,1.1-1.34,1.47-3.37,3.7-5.72,2.38l-.28-.21c-1.75-1.66-1.16-4.58-.6-7.4.19-.96.39-1.96.48-2.82l2.11-12.57c.17-1.31.38-2.39.57-3.35.34-1.77.57-2.94.32-4.55-.07-.33-.37-.62-.62-.69-.11-.04-.25-.04-.45.15-1.13,1.1-1.41,2.89-1.74,4.96-.12.76-.24,1.54-.42,2.33-.56,4.08-2.47,6.98-5.84,8.85-4.56,2.94-8.17,7.37-9.59,11.8-.17.52-.33,1.03-.5,1.56-.88,2.83-1.88,6.04-4.44,8.13-1.29,1.03-2.7,1.28-3.78.67-.67-.37-1.73-1.37-1.42-3.86.2-1.63.46-3.12.73-4.71.15-.87.3-1.76.45-2.69l2.54-15.16c.06-.37.12-.74.18-1.1.23-1.35.39-2.32.13-3.29-.07-.24-.25-.69-.62-.73-.29-.04-.75.19-1.08.77-.63,1.17-.78,2.18-1.02,3.71-.1.68-.22,1.42-.39,2.27l-2.73,16.19c-.12,1-.31,2.05-.49,3.07-.81,4.55-1.18,7.46,1.54,9.48ZM102.82,84.1c-1.12,0-2.08-.46-2.74-1.3-1.19-1.52-1.16-4.07-.62-5.8,1.14-4.21,4.09-7.5,6.36-9.52l.11-.09c.08-.06.19-.15.31-.26.73-.62,1.72-1.48,2.86-1.26.56.11,1.03.46,1.3.99l.05.09c.35.81.19,1.91-.18,4.12l-.17,1.07c-.1.55-.19,1.11-.27,1.68-.28,1.83-.58,3.73-1.2,5.14l-.07.16c-.79,1.68-2.82,4.63-5.4,4.97h-.11c-.07.01-.15.02-.22.02ZM107.63,69.66c-1.97,1.76-4.49,4.59-5.45,8.13-.37,1.2-.3,2.71.14,3.26.09.11.22.23.52.21,1.03-.19,2.44-1.86,3.15-3.34l.05-.11c.47-1.06.74-2.85.99-4.43.09-.59.18-1.18.28-1.72l.17-1.06c.05-.29.1-.62.15-.94ZM107.8,67.94h0Z"/>
      <path class="cls-1" d="M186.01,66.52c-2.45,0-4.84-.81-6.79-2.42-1.99-1.45-2.96-4.35-2.11-6.36.65-1.54,2.18-2.25,4.1-1.89,1.03.26,1.85.72,2.65,1.18.97.55,1.89,1.07,2.72.98.78-.08,1.25-.63,1.46-.95.44-.67.58-1.53.35-2.24-.71-2.11-1.49-3.2-2.09-3.59-.15.15-.34.37-.48.53-.49.58-1.1,1.29-2.01,1.72-1.12.58-2.57.39-3.56-.48-1.89-1.81-1.57-4.09-1.24-6.5l.1-.68c.18-.76.31-1.68.45-2.66.44-3.11.94-6.64,3.46-8.1l.19-.09c1.02-.4,1.98-.41,2.86-.02,1.74.77,2.5,2.8,3.23,4.77.38,1,.8,2.13,1.23,2.59l.13.16c.53.78,1.12,1.54,1.74,2.36,2.1,2.76,4.28,5.62,4.78,9.28.68,4.42-1.42,8.61-5.47,10.91-1.8,1.02-3.76,1.53-5.68,1.53ZM180.25,58.58c-.41,0-.49.19-.53.27-.27.65.11,2.22,1.18,2.98l.08.06c2.58,2.13,6.23,2.38,9.3.64,2.36-1.34,4.66-4.15,4.07-8.03-.4-2.94-2.35-5.5-4.23-7.97-.59-.78-1.2-1.58-1.76-2.39-.77-.87-1.24-2.12-1.73-3.45-.46-1.22-1.08-2.88-1.73-3.17-.05-.02-.2-.09-.56.03-1.26.84-1.66,3.69-1.98,5.99-.14,1.02-.28,1.98-.48,2.85l-.07.49c-.3,2.14-.42,3.29.35,4.02.08.07.26.09.4.02.41-.19.74-.58,1.1-1,.56-.66,1.26-1.49,2.39-1.63l.4-.02.18.04c1.86.44,3.36,2.33,4.46,5.62.49,1.55.23,3.29-.68,4.68-.83,1.26-2.11,2.06-3.53,2.21-1.73.19-3.16-.62-4.42-1.33-.66-.38-1.29-.73-1.86-.87-.14-.03-.26-.04-.36-.04Z"/>
    </g>
    <path class="cls-1" d="M121.65,241.57c-31.39,0-61.8-12.91-84.49-36.14C12.37,180.05.09,145.73,3.48,111.27,8.75,50.26,60.76,2.55,121.94,2.55c.1,0,.21,0,.31,0h.16c.14,0,.29,0,.44,0,39.81,0,76.8,20.16,99.01,53.99,22.33,34.01,26.08,76.18,10.05,112.81-8.48,19.95-22.59,37.31-40.8,50.21-18.27,12.94-39.35,20.44-60.95,21.69-2.84.21-5.67.32-8.5.32ZM121.94,5.38C62.21,5.38,11.45,51.95,6.3,111.54c-3.3,33.64,8.68,67.13,32.89,91.91,24.15,24.72,57.24,37.47,90.77,34.98,21.1-1.22,41.67-8.54,59.5-21.17,17.78-12.6,31.56-29.55,39.84-49.02,15.66-35.76,11.99-76.93-9.81-110.13C197.72,24.94,161.43,5.22,122.42,5.38h-.17c-.1,0-.21,0-.3,0ZM122.31,235.9h-.17c-23.26-.03-46.18-7.19-64.52-20.14l-1.94-1.37,2.13-1.06c5.03-2.5,64.27-18.51,111.87-31.38,27.18-7.35,50.65-13.7,54.23-14.89l.2-.05c.8-.15,1.28.21,1.5.44.28.28.57.79.4,1.6-.08.39-.27.91-.65,1.74-6.19,13.01-15.12,25.07-25.82,34.92-21.13,19.47-48.56,30.2-77.23,30.2ZM122.14,233.07h.17c27.96,0,54.7-10.46,75.31-29.45,10.19-9.37,18.72-20.81,24.73-33.13-7.32,2.13-27.4,7.56-51.94,14.2-41.15,11.12-96.21,26.01-108.94,30.28,17.49,11.66,38.92,18.07,60.67,18.1ZM53.13,211.53c-.85,0-1.42-.4-2.01-.81-.13-.09-.29-.2-.46-.32-1.02-.79-2.67-2.18-3.92-3.31-21.29-18.92-34.99-45.88-37.58-73.97-.07-1.09-.19-3.04,1.57-3.44,11.52-3.18,199.63-55.07,211.48-58.34.24-.06.6-.13,1-.04,1.03.16,1.63,1.25,2.41,2.88,6.58,14.26,10.09,29.5,10.44,45.32.17,9.35-.7,18.27-2.57,26.5l-.08.27c-.4,1.25-.69,2.15-2.15,2.57l-.11.03c-4.5.92-27.82,7.51-54.83,15.14-70.45,19.9-102.39,28.66-105.28,27.98l-1.3-.3.22-1.31c1.57-9.38,3.66-21.69,5.65-33.4,1.45-8.54,2.84-16.77,3.95-23.31l.14-.94c.75-4.96,1.1-9.19-2.26-10.74-7.13-2.31-19.57,5.16-25.76,10.96-7.76,7.2-12.57,16.19-13.57,25.32-1.03,8.45,2.5,18.89,11.23,22.54,2.35.96,4.77.98,6.29.04.65-.39,1.11-.96,1.31-1.61.19-.61.12-1.24-.2-1.77-.54-.99-1.7-1.87-2.54-2.45-5.94-3.42-8.87-8.37-8.72-14.71.22-10.14,6.56-20.26,16.98-27.06,1.88-1.21,4.01-2.34,5.84-3.1,1.27-.51,2.56-.86,3.49-.05.82.74.71,1.76.65,2.26v.12c-.31,1.8-.83,4.89-1.49,8.78l-1.48,8.71c-1.25,7.4-2.51,14.83-3.7,21.83-1.04,6.1-2.02,11.87-2.88,17.02-.1.79-.26,1.68-.42,2.54-.65,3.55-1.27,6.91,1.09,9.15,1.25,1.06,4.04,1.09,5.88.49,6.06-1.67,45.68-12.6,83.82-23.12,34.82-9.6,68.4-18.87,74-20.41.27-.07.58-.14.93-.09.48.06.9.34,1.16.75.18.29.65,1.07-.42,3.47l-.19.37c-.31.6-.7,1.35-1.74,1.68-18.9,5.2-64.68,17.83-104.47,28.82-34.79,9.6-64.83,17.9-68.65,18.93-.28.07-.53.09-.76.09ZM11.96,132.28c0,.15,0,.35.02.62,2.52,27.34,15.88,53.63,36.65,72.08,1.2,1.09,2.78,2.42,3.68,3.12.12.08.28.19.43.29.16.11.33.23.43.29,4.06-1.1,33.98-9.36,68.61-18.92,39.71-10.96,85.37-23.57,104.29-28.77.04-.07.1-.18.15-.28-9.12,2.51-40.13,11.07-72.2,19.91-38.14,10.52-77.76,21.45-83.76,23.1-2.07.68-6.14.98-8.59-1.09-3.53-3.35-2.67-8.02-1.98-11.77.16-.86.31-1.68.41-2.45.88-5.2,1.86-10.97,2.89-17.07,1.19-7,2.45-14.43,3.7-21.83l1.48-8.71c.59-3.46,1.07-6.28,1.36-8.07-.05.02-.1.04-.15.06-1.67.69-3.63,1.73-5.37,2.85-7.43,4.85-15.46,13.9-15.69,24.74-.12,5.31,2.28,9.31,7.35,12.21l.1.06c1.74,1.21,2.8,2.26,3.43,3.41.7,1.18.87,2.62.45,4.01-.41,1.32-1.32,2.46-2.56,3.2-2.29,1.41-5.6,1.47-8.84.15-10.04-4.19-14.11-15.99-12.96-25.48,1.07-9.79,6.2-19.41,14.45-27.07,6.42-6.02,19.89-14.48,28.66-11.55l.13.05c5.69,2.53,4.66,9.3,3.98,13.79l-.14.95c-1.11,6.58-2.5,14.8-3.95,23.34-1.86,10.99-3.82,22.51-5.35,31.64,9.98-1.67,65.18-17.27,102.49-27.81,26.84-7.58,50.05-14.14,54.91-15.17.06-.16.16-.45.24-.71l.03-.1c1.81-7.99,2.64-16.66,2.48-25.75-.34-15.43-3.76-30.29-10.17-44.18-.28-.58-.47-.95-.6-1.17-15.63,4.31-194.75,53.72-210.49,58.06ZM11.47,132.42h-.05s.04,0,.05,0ZM10.43,127.24c-.48,0-.92-.19-1.25-.54-.79-.87-.65-2.52-.58-3.01l.09-.7.62-.4c6.23-3.52,54.4-16.37,93.11-26.69,22.3-5.95,41.55-11.08,45.59-12.53l.11-.03c.63-.17.87-.24,1.22-1.75.26-1.23.2-3.07-.17-5.16-.86-5.69-1.65-12.24-.25-18.39l.07-.22c1.13-2.79,3.29-3.42,5.78-4.15l5.46-1.52c.53-.14,1.01-.27,1.48-.41,1.21-.34,2.35-.66,3.56-.81.81-.15,1.63.07,2.23.62.62.57.93,1.45.85,2.41-.04,1.36-.39,3.31-.75,5.37-.38,2.17-.78,4.42-.84,6.12-.09.93.3,1.81.71,2.05.07.04.23.13.65-.17,1.07-.78,1.33-2.37,1.61-4.06.07-.43.14-.85.22-1.25l3.35-19.76c.13-1.19.38-2.5.64-3.88.73-3.81,1.48-7.76-.21-10.53-.99-1.07-2.15-1.63-3.54-1.7-4.16-.23-9.03,3.76-10.95,5.48-4.54,4.15-8.06,9.24-10.45,15.13l-.26.64c-.59,1.49-1.21,3.03-2.37,4.32-1.34,1.72-3.38,2.48-5.18,3.15-1.42.53-2.77,1.03-3.7,1.95-.2.26-.24.43-.21.48.07.15.49.43,1.16.43,0,0,.02,0,.03,0h.08s.08,0,.08,0c.37.04.86,0,1.37-.03,1.53-.1,3.83-.26,5.04,1.85.71,1.21.67,2.93.63,4.75-.01.58-.03,1.17-.01,1.76.02,2.67.21,5.39.57,8.1.08.6.17,1.21.25,1.82.07.49.14.98.2,1.44.03.34.06.59.08.81.13,1.16.3,2.74-1.58,3.39l-.15.04c-4.19.95-23.08,6.25-44.96,12.39-37.08,10.4-83.23,23.34-89.48,24.06l-1.61.18.03-1.62c.67-33.21,17.19-64.35,45.33-85.43C82.62,9.92,117.7,2.77,150.41,11.65c28.13,7.09,53.14,25.41,68.6,50.24.84,1.3,1.98,3.2,2.64,4.58.66,1.5.18,2.27-.33,2.65l-.21.16-.26.07c-23.21,6.44-170.89,47.1-209.95,57.83l-.14.03c-.11.02-.22.03-.33.03ZM132.18,90.86c-7.88,2.14-17.89,4.81-29.03,7.78-29.53,7.88-67.89,18.1-84.61,23.5,24.75-6.81,71.24-19.6,113.65-31.28ZM122.42,10.76c-23.35,0-46.62,7.8-66.57,22.75C28.9,53.7,12.88,83.32,11.7,115.01c10.4-2.09,54.58-14.49,87.41-23.69,21.27-5.97,39.72-11.14,44.68-12.33-.01-.15-.03-.31-.05-.46-.03-.24-.06-.51-.08-.81-.05-.38-.12-.86-.19-1.34-.09-.62-.18-1.25-.26-1.86-.37-2.82-.57-5.65-.59-8.42-.01-.6,0-1.24.01-1.86.03-1.28.06-2.73-.25-3.26-.28-.49-.87-.54-2.4-.44-.58.04-1.18.08-1.76.03-1.66,0-3.1-.8-3.69-2.03-.54-1.12-.32-2.41.61-3.55l.08-.1c1.37-1.4,3.11-2.05,4.78-2.67,1.59-.59,3.09-1.15,4-2.31.88-.99,1.38-2.24,1.91-3.56l.26-.66c2.54-6.27,6.3-11.71,11.17-16.16,2.72-2.44,8.04-6.48,13.01-6.21,2.19.12,4.06,1.04,5.58,2.73l.14.18c2.38,3.73,1.47,8.49.67,12.69-.25,1.33-.49,2.58-.62,3.74l-3.37,19.88c-.08.41-.15.8-.21,1.19-.33,1.97-.73,4.42-2.75,5.89-1.22.88-2.58,1-3.74.33-1.42-.82-2.31-2.79-2.12-4.7.06-1.81.48-4.16.88-6.42.35-1.96.67-3.82.71-5.05,0-.01,0-.02,0-.03-.97.13-1.93.4-3.04.72-.49.14-.99.28-1.52.42l-5.39,1.5c-2.32.68-3.31,1.02-3.91,2.4-1.26,5.64-.5,11.82.31,17.18.3,1.68.57,4.16.14,6.22-.54,2.34-1.38,3.35-3.19,3.86-1.4.5-4.34,1.37-8.49,2.53,35.61-9.81,67.04-18.47,78.31-21.59-.6-1.14-1.46-2.55-2.13-3.59-15.08-24.23-39.47-42.09-66.92-49.01-8.97-2.43-18.13-3.63-27.27-3.63ZM152.63,51.98c-.92,0-1.85-.3-2.18-1.46l-.06-.28c-.14-1.2.42-2.47.91-3.59.08-.18.16-.36.23-.53,1.96-4.35,4.87-8.62,8.21-12.06,2.11-2.17,7.35-7.04,10.59-5.28,2.57,1.4,1.95,5.56,1.26,8.56-.13.73-.26,1.57-.4,2.42-.27,1.65-.54,3.37-.89,4.92-.33,1.85-1.56,3.08-3.64,3.6-2.72.79-8.92,2.51-12.17,3.41-.42.11-1.14.3-1.86.3ZM168.72,31.22c-.92,0-3.51,1.26-6.95,4.81-3.11,3.22-5.83,7.2-7.65,11.22-.06.14-.14.34-.23.54-.15.34-.36.82-.51,1.24.11-.02.23-.05.37-.09,3.23-.89,9.42-2.61,12.17-3.4,1.18-.3,1.48-.76,1.6-1.42.34-1.52.61-3.19.87-4.81.14-.86.28-1.72.42-2.53.93-4.07.42-5.37.16-5.51-.06-.03-.14-.05-.25-.05Z"/>
    <path class="cls-1" d="M138.37,167.51c-.45,0-.89-.04-1.33-.11l-.12-.02c-3.54-.62-5.96-2.88-6.49-6.04-.69-3.18-.65-6.54-.61-9.79v-.22c.13-5.24.69-11.29,1.2-16.55.13-.98.22-2.03.32-3.11.23-2.6.48-5.28,1.11-7.18.71-2.1,2.61-3.79,4.84-4.32,1.99-.47,3.93.05,5.32,1.43,2.85,3.05,2.32,7.22,1.86,10.89-.14,1.09-.27,2.11-.31,3.07-.41,4.16-.72,7.79-.94,11.2l-.05.68c-.08,1.2-.2,2.92-.07,3.71.2-.1.51-.27.94-.6,10.34-7.03,13.02-22.91,13.59-27.61.07-.55.11-1.1.15-1.63.18-2.47.39-5.26,3.42-7.31,1.46-1.03,3.35-1.27,5.17-.65,2.08.72,3.76,2.43,4.36,4.46l.03.13c.6,3.08.04,6.32-.5,9.44-.11.62-.21,1.23-.31,1.83-1.21,6-2.78,11.05-4.8,15.49-4.57,11.5-17.14,20.53-24.06,22.36-.95.29-1.85.44-2.74.44ZM137.41,164.59l.11.02c.88.15,1.75.07,2.81-.26,6.56-1.73,18.14-10.44,22.24-20.74,1.96-4.31,3.46-9.15,4.62-14.88.09-.56.19-1.18.3-1.81.49-2.85,1-5.79.52-8.35-.36-1.13-1.36-2.12-2.55-2.53-.68-.23-1.68-.37-2.63.3-1.92,1.29-2.04,2.93-2.21,5.19-.04.58-.09,1.17-.16,1.77-.61,5-3.49,21.91-14.76,29.57-1.02.76-2.61,1.73-4.02.95-1.72-.94-1.55-3.43-1.33-6.58l.05-.67c.22-3.44.53-7.11.94-11.22.04-.99.19-2.13.33-3.22.42-3.36.83-6.53-1.08-8.56-.9-.88-2.04-.78-2.64-.64-1.28.3-2.41,1.29-2.81,2.46-.53,1.58-.75,4.1-.97,6.54-.1,1.12-.2,2.21-.33,3.18-.5,5.17-1.05,11.16-1.18,16.28v.2c-.04,3.09-.08,6.29.56,9.22.48,2.84,3.09,3.59,4.2,3.79ZM141.75,159.61v-2.83s0,0,0,0v2.83Z"/>
    <path class="cls-1" d="M105.14,175.61h-.06c-4.04-.2-7.56-1.83-10.16-4.72-3.7-4.1-5.52-10.53-5.11-18.09.63-8.52,3.85-15.9,9.06-20.8,5.09-5.1,14.34-7.05,20.36-1.25,4.81,4.49,7.07,11.98,6.17,20.55-1.24,11.26-8.04,23.67-20.04,24.31h-.22ZM105.19,172.78h.11c10.26-.55,16.17-11.68,17.29-21.78.8-7.66-1.13-14.3-5.31-18.19-4.79-4.62-12.26-2.96-16.43,1.22-4.73,4.45-7.63,11.17-8.21,18.95-.36,6.68,1.24,12.53,4.39,16.01,2.11,2.34,4.86,3.61,8.17,3.78ZM105.62,165.22c-.31,0-.59-.04-.83-.09-1.46-.31-4-1.74-4.64-7.77-.66-5.4,1.79-18.72,9.55-19.89l.15-.02.41.04c3.41.6,4.32,4.62,4.71,6.34.93,5.13-.2,11.46-2.86,16.2-2.52,4.3-4.92,5.19-6.48,5.19ZM109.91,140.31c-5,1.02-7.57,11.66-6.95,16.73.39,3.63,1.55,5.14,2.42,5.32.85.18,2.47-.69,4.26-3.75,2.35-4.18,3.35-9.77,2.54-14.22-.38-1.69-1-3.72-2.27-4.08Z"/>
    <path class="cls-1" d="M191.54,151.84h-.01c-5.69-.08-10.48-2.25-13.85-6.27-3.93-4.68-5.52-11.41-4.37-18.46,1.51-8.86,6.6-19.54,16.35-22.97,5.4-1.64,10.5-.35,13.7,3.44,3.26,3.86,3.7,9.45,1.14,14.59-2.63,6.07-8.06,9.65-12.14,11.58-.65.33-1.37.64-2.07.94-1.33.57-2.83,1.22-3.19,1.83-.42.71.92,1.63,1.33,1.89,1.64,1.01,4.11,1.18,6.59.46,2.62-.76,4.66-2.2,6.47-3.65,1.94-1.54,5.55-4.42,9.25-2.67l.18.1c2.67,1.79,3.05,3.89,2.9,5.34-.55,5.22-8.94,10.26-12.69,11.76-3.25,1.33-6.51,2.04-9.42,2.08h-.18ZM194.13,106.28c-1.16,0-2.37.18-3.6.56-8.55,3-13.13,13.05-14.44,20.74-1.01,6.22.35,12.12,3.75,16.17,2.83,3.37,6.87,5.19,11.71,5.26h.14c2.55-.03,5.45-.67,8.38-1.87,4.24-1.7,10.6-6.21,10.93-9.43.07-.62-.03-1.57-1.57-2.63-1.92-.83-4.1.71-6.18,2.36-1.94,1.55-4.34,3.25-7.45,4.15-3.28.96-6.51.67-8.88-.78-2.54-1.6-3.41-3.79-2.28-5.73.83-1.41,2.62-2.18,4.51-3,.65-.28,1.31-.56,1.95-.88,3.67-1.74,8.5-4.9,10.81-10.23,2.08-4.18,1.78-8.58-.74-11.56-1.73-2.05-4.24-3.13-7.05-3.13ZM186.05,126.5c-.87,0-1.38-.43-1.63-.73-1-1.21-.27-3.13.26-4.17,1.59-3.3,4.97-8.9,9.58-9.14h.09s.32.03.32.03c1.35.23,1.92,1.04,2.15,1.51.82,1.71-.33,3.99-1.46,5.98l-.12.21c-2.1,3.32-5.6,5.17-8.17,6.13l-.11.04c-.34.1-.65.14-.92.14ZM194.27,115.3c-2.24.22-4.86,3.02-7.05,7.55-.07.14-.14.29-.19.43,2.01-.88,4.37-2.31,5.78-4.55l.09-.16c1.19-2.1,1.39-2.94,1.37-3.28Z"/>
  </g>
</svg>