<?xml version="1.0" encoding="UTF-8"?>
<svg id="Layer_1" data-name="Layer 1" xmlns="http://www.w3.org/2000/svg" viewBox="0 0 236.31 236.31">
  <defs>
    <style>
      .cls-1 {
        fill: #fff;
      }
    </style>
  </defs>
  <g>
    <path class="cls-1" d="M37.68,94.75l3.7-1.02c3.05-.84,4.95-1.67,5.73-2.51,1.07-1.14,1.41-2.43,1.01-3.85-.18-.66-.45-1.22-.81-1.68s-1.02-1.05-1.97-1.76c-1.16-.91-1.84-1.72-2.04-2.45-.29-1.06.14-2.11,1.3-3.17l2.36-2.12c1.64-1.5,2.78-3.14,3.42-4.94.64-1.79.73-3.54.26-5.24-.66-2.4-2.14-4.09-4.43-5.06-2.3-.97-4.98-1.04-8.04-.19-3.13.86-5.94,2.39-8.43,4.59-2.49,2.2-4.3,4.7-5.42,7.51-1.12,2.8-1.34,5.47-.64,8,.3,1.08.79,1.97,1.47,2.67.68.7,1.65,1.31,2.9,1.81.79.29,1.32.56,1.59.78s.46.58.59,1.06c.2.73.1,1.42-.3,2.09s-.98,1.1-1.74,1.32c-1.26.35-2.6.2-4-.44s-2.66-1.64-3.77-3.01-1.91-2.95-2.41-4.75c-.95-3.44-.71-7.02.71-10.74,1.42-3.72,3.76-7.04,7.04-9.96s7-4.95,11.19-6.1c3.17-.87,6.09-1.09,8.76-.67,2.67.42,4.93,1.46,6.79,3.11s3.15,3.79,3.87,6.42c1.08,3.94.35,7.86-2.21,11.77-1.23,1.85-2.62,3.29-4.16,4.32,1.13.87,2.01,1.72,2.62,2.55.62.83,1.08,1.8,1.38,2.9.5,1.8.47,3.56-.08,5.29-.55,1.72-1.57,3.21-3.05,4.47-.82.67-1.78,1.24-2.87,1.71-1.1.47-2.74,1.01-4.94,1.61l-6.31,1.74c-.75.21-1.31.33-1.68.38-.38.05-.78.03-1.2-.05-1.06-.29-1.74-.99-2.05-2.11-.13-.46-.18-.97-.15-1.53.02-.56.14-1.41.34-2.53l4.74-28.08c.27-1.52.58-2.58.93-3.18s.9-1,1.64-1.2c.73-.2,1.4-.13,2.01.2.61.33,1.01.83,1.2,1.49.14.52.09,1.51-.15,2.98l-4.68,27.59-.02-.02Z"/>
    <path class="cls-1" d="M58.81,86.73c-.53-1.93-.72-3.9-.58-5.92.15-2.02.6-3.95,1.37-5.79.76-1.84,1.77-3.38,3.02-4.63s2.64-2.08,4.17-2.5c1.43-.39,2.74-.42,3.93-.1,1.19.33,2.22.99,3.09,1.99.86,1,1.52,2.31,1.96,3.92.72,2.63.84,5.32.36,8.06-.48,2.74-1.47,5.11-2.96,7.1s-3.25,3.27-5.28,3.83-3.97.32-5.62-.76c-1.66-1.08-2.81-2.81-3.47-5.2h.01ZM64.33,85.28c.23.85.62,1.46,1.16,1.84s1.15.47,1.83.28c1.41-.39,2.44-2.22,3.1-5.5.51-2.59.51-4.84-.02-6.75-.25-.91-.62-1.56-1.1-1.94-.48-.38-1.07-.48-1.75-.29-.83.23-1.52.85-2.07,1.87s-.98,2.46-1.27,4.33c-.36,2.51-.32,4.56.12,6.15h0Z"/>
    <path class="cls-1" d="M119.75,69.77c-.14-.52-.49-.92-1.04-1.22-.55-.29-1.08-.37-1.6-.23-.37.1-.71.3-1.02.6-.31.3-.79.88-1.44,1.75-1.63,2.1-2.69,3.41-3.18,3.93s-.96.85-1.42.98c-.25.07-.51.03-.78-.1-.27-.14-.44-.32-.5-.55-.17-.6-.14-1.53.07-2.79l4.29-25.35c.23-1.35.28-2.27.15-2.75-.18-.66-.55-1.14-1.11-1.43s-1.18-.34-1.86-.16c-.7.19-1.21.55-1.51,1.07s-.59,1.51-.85,2.99l-1.81,10.56c-3.38,1.42-6.31,3.37-8.8,5.86-2.49,2.49-4.27,5.2-5.33,8.14-.69,1.89-1,3.72-.94,5.47-.29.37-.62.81-1,1.33-1.09,1.46-1.94,2.5-2.53,3.12-.6.62-1.16,1-1.67,1.15-.64.18-1.05-.07-1.24-.73-.11-.39-.08-1.09.09-2.1l4.37-25.9c.25-1.29.29-2.21.15-2.75-.18-.66-.55-1.14-1.11-1.43s-1.18-.34-1.86-.16c-.7.19-1.21.55-1.51,1.07s-.59,1.51-.85,2.99l-4.37,25.67c-.22,1.38-.34,2.5-.36,3.37s.07,1.65.26,2.34c.38,1.37,1.13,2.36,2.27,2.98s2.44.73,3.89.33c2.41-.66,4.84-2.55,7.29-5.66.43.53.91,1,1.48,1.35,1.4.87,2.96,1.07,4.68.6,2.11-.58,4.11-2.1,6-4.56.57.85,1.21,1.41,1.92,1.68s1.53.28,2.46.02c1.2-.33,2.4-.96,3.6-1.87,1.2-.92,2.56-2.3,4.1-4.15,1.07-1.3,1.81-2.39,2.24-3.29.42-.9.56-1.62.4-2.18h-.02ZM103.29,73.96c-.69,1.21-1.42,2.25-2.2,3.11s-1.48,1.38-2.1,1.55c-.56.15-1.06.09-1.51-.2-.45-.29-.76-.74-.93-1.37-.36-1.33-.21-2.87.47-4.62.68-1.76,1.74-3.46,3.19-5.12,1.45-1.66,3.08-3.01,4.88-4.07l-1.8,10.72Z"/>
    <path class="cls-1" d="M181.81,43.87l-.25,1.41c-.25,1.43-.53,2.41-.84,2.96s-.81.91-1.52,1.1-1.31.13-1.87-.17-.93-.78-1.12-1.45c-.13-.48-.08-1.38.16-2.72l1.5-8.9c.19-1.17.37-1.99.52-2.48.15-.49.36-.85.62-1.09s.62-.42,1.1-.55c.73-.2,1.37-.16,1.92.12.56.28.93.77,1.13,1.48.08.29.11.53.09.71v1.41c-.03.34.02.72.13,1.13.15.56.4,1.09.73,1.61.33.51,1.01,1.39,2.05,2.65.93,1.1,1.9,2.36,2.91,3.78,1.06,1.51,1.76,2.89,2.11,4.13.46,1.66.48,3.3.07,4.93-.41,1.63-1.2,3.03-2.37,4.21s-2.59,2-4.27,2.46c-1.49.41-2.99.46-4.49.15-1.5-.31-2.82-.92-3.94-1.82-1.13-.9-1.86-1.96-2.19-3.16-.24-.87-.18-1.65.18-2.34.36-.69.93-1.14,1.72-1.36,1.06-.29,1.92.04,2.58.99l.83,1.18c1.06,1.51,2.34,2.06,3.83,1.65,1.18-.32,2.04-.99,2.58-2,.54-1.01.65-2.08.33-3.22-.27-.97-1.35-2.73-3.25-5.26-.43-.59-.75-1.11-.96-1.54h-.02Z"/>
  </g>
  <path class="cls-1" d="M118.15,0C53,0,0,53,0,118.15s53,118.15,118.15,118.15,118.15-53,118.15-118.15S183.3,0,118.15,0ZM5.68,118.9s.06,0,.09-.01l139.48-38.37c.36-.1.67-.26.95-.48.91-.59,1.5-1.64,1.15-2.98-2.17-8.31-2.59-16.58-1.27-24.59h0l17.18-4.73-2.34,13.85c-.24,1.4-.28,2.38-.13,2.94.19.68.59,1.19,1.2,1.52.61.33,1.28.4,2.01.2.75-.21,1.29-.6,1.63-1.2.34-.59.64-1.65.91-3.18l5.12-30.22c.59-3.46.69-5.89.3-7.3-.31-1.12-.85-2.01-1.62-2.68-.77-.67-1.73-1.09-2.86-1.27s-2.34-.09-3.62.26c-1.14.31-2.33.79-3.58,1.44-1.25.64-2.52,1.46-3.81,2.43-1.29.98-2.53,2.07-3.72,3.26-5.59,5.59-9.43,12.38-11.52,20.35l-.02.17-7.18,1.97c-1.51.42-2.49.82-2.94,1.21-.88.76-1.17,1.69-.86,2.81.23.85.76,1.38,1.58,1.6.4.09.81.11,1.22.05s1.02-.2,1.82-.42l5.25-1.44.09-.03c-.87,7.33-.48,14.71,1.13,22L5.78,113.37C8.29,53.56,57.73,5.67,118.15,5.67c42.4,0,79.39,23.58,98.55,58.32L5.74,122.02c-.04-1.04-.06-2.08-.06-3.12ZM147.5,46.59c.51-1.63,1.14-3.24,1.9-4.83.75-1.59,1.68-3.19,2.78-4.79,1.1-1.6,2.2-3.03,3.3-4.27,1.5-1.68,3.08-3.15,4.74-4.41s3.06-2.04,4.2-2.36c1.14-.31,1.83-.04,2.07.83.14.52.07,1.61-.2,3.27l-2.03,11.95-16.75,4.61h-.01ZM118.15,230.64c-23.9,0-46.08-7.5-64.32-20.26l166.81-45.89c-17.69,38.97-56.98,66.15-102.49,66.15h0ZM223.24,158.26l-174.81,48.09c-23.75-18.81-39.75-46.99-42.37-78.91l213.16-58.64c7.31,14.91,11.42,31.66,11.42,49.35,0,8.67-.99,17.12-2.86,25.23l-160.79,44.24,9.86-58.06c.02-.21.06-.47.12-.79.05-.32.11-.6.16-.86.66-3.6.76-6.22.31-7.87-.53-1.94-1.71-3.21-3.52-3.8-1.81-.59-4.21-.47-7.21.35-5.5,1.51-10.61,3.97-15.32,7.38-4.72,3.41-8.66,7.36-11.83,11.86-3.17,4.49-5.36,9.27-6.56,14.33s-1.19,9.83.05,14.32c.76,2.77,1.95,5.29,3.56,7.56s3.48,4.06,5.61,5.37c1.72.98,3.34,1.63,4.88,1.95,1.54.32,2.92.31,4.16-.03,1.46-.4,2.55-1.15,3.27-2.26.72-1.1.91-2.29.56-3.56-.24-.86-.63-1.51-1.17-1.94-.54-.43-1.54-.95-2.99-1.56-4.15-1.63-6.76-4.38-7.82-8.23-1.13-4.11-.86-8.47.81-13.08,1.67-4.6,4.45-8.86,8.35-12.77,3.89-3.91,8.4-6.87,13.52-8.88l.99-.33.38-.16-10.56,62.12-.45,2.54c-.32,1.9-.32,3.43,0,4.59.41,1.5,1.27,2.53,2.57,3.09,1.3.57,2.84.63,4.61.18l1.8-.49,159.41-43.84c-.41,1.18-.83,2.36-1.28,3.53l-.02-.02Z"/>
  <path class="cls-1" d="M133.49,162.02c-1.54,0-3.01-.63-4.11-1.76-1.92-1.98-3.17-4.74-1.73-22.21.68-8.27,1.67-16.06,1.71-16.38.36-2.83,2.94-4.83,5.78-4.47,2.83.36,4.83,2.95,4.47,5.78-1.22,9.55-2.19,20.69-2.26,26.94,4.05-2.23,9.76-6.56,12.73-13.2,5.48-12.23,5.12-20.85,5.11-20.94-.18-2.85,1.99-5.28,4.83-5.46,2.84-.17,5.3,2,5.48,4.85.03.44.6,11.04-6,25.77-6.22,13.88-20.55,20.6-25.48,21.06-.18.02-.36.02-.53.02h0ZM137.61,154.34h0Z"/>
  <path class="cls-1" d="M101.07,170.36c-.86,0-1.72-.09-2.56-.28-8.84-1.94-13.58-13.37-10.8-26.01,1.23-5.59,3.78-10.62,7.18-14.16,3.98-4.15,8.92-5.94,13.53-4.93,8.84,1.94,13.58,13.37,10.8,26.01-1.23,5.59-3.78,10.62-7.18,14.16-3.25,3.39-7.14,5.2-10.97,5.2h0ZM105.85,135.03c-.97,0-2.28.75-3.52,2.03-2.07,2.15-3.72,5.51-4.54,9.22-.81,3.71-.72,7.45.25,10.27.66,1.9,1.68,3.22,2.68,3.44s2.48-.55,3.87-2c2.07-2.15,3.72-5.51,4.54-9.22.81-3.71.72-7.45-.25-10.27-.66-1.9-1.68-3.22-2.68-3.44-.11-.02-.23-.04-.35-.04h0Z"/>
  <path class="cls-1" d="M187.62,146.56c-6.66,0-13.15-4.01-15.35-9.9-3.03-8.13-1.35-13.76,0-18.28l.2-.66c2.03-6.85,6.87-12.96,12.35-15.56,4.33-2.06,9.04-1.47,12.6,1.58,5.44,4.66,3.44,12.72-.72,18.23-3.79,5.02-11.14,7.99-16.31,9.54.16.6.36,1.23.61,1.9.93,2.49,4.87,4.33,7.96,3.72,5.24-1.05,7.45-3.06,10.79-6.1.39-.35.78-.71,1.18-1.07,1.91-1.71,4.85-1.55,6.57.36,1.71,1.91,1.55,4.85-.36,6.57-.39.35-.76.69-1.13,1.02-3.67,3.34-7.46,6.79-15.23,8.35-1.04.21-2.1.31-3.15.31h-.01ZM190.02,110.25c-.34,0-.73.08-1.21.31-2.61,1.24-6,5.01-7.42,9.8l-.2.68c-.04.14-.08.28-.13.42,4.22-1.64,7.05-3.57,8.2-5.1,1.9-2.52,2.38-5,2.09-5.56-.22-.18-.64-.54-1.34-.54h.01Z"/>
</svg>