<?xml version="1.0" encoding="UTF-8"?>
<svg id="Layer_1" data-name="Layer 1" xmlns="http://www.w3.org/2000/svg" viewBox="0 0 243.78 243.78">
  <defs>
    <style>
      .cls-1 {
        fill: #fff;
      }

      .cls-2 {
        opacity: .3;
      }
    </style>
  </defs>
  <g class="cls-2">
    <g>
      <path class="cls-1" d="M40.8,107.47c-1.96,0-3.56-.57-4.77-1.72-2.11-2.01-2.62-5.4-1.55-10.36-.09.08-.2.16-.3.24-2.35,1.71-6.02,1.17-8.13-.32-4.52-2.85-7.09-8.62-6.57-14.73.69-7.08,4.67-13.86,10.93-18.64,6.28-4.79,13.89-6.85,20.87-5.64,3.97.71,7.46,3.02,9.82,6.52,2.36,3.49,3.27,7.76,2.49,11.73-.31,2.62-1.72,4.98-2.97,7.06-.61,1.02-1.19,1.99-1.48,2.74-.13.88.31,1.94.81,3.16.67,1.61,1.49,3.6,1.18,5.9-.61,9.52-10.99,12.1-16.58,13.48-1.37.39-2.63.58-3.76.58ZM43.01,75.56l-3.45,20.51c-.84,3.62-.53,5.49,0,5.98.37.35,1.54.51,3.71-.1,6.35-1.58,12.49-3.55,12.79-8.95l.02-.24c.14-.96-.31-2.05-.83-3.32-.71-1.72-1.6-3.86-1.06-6.33l.08-.28c.43-1.27,1.19-2.53,1.98-3.86,1-1.67,2.13-3.56,2.29-5.1l.04-.25c.55-2.66-.07-5.56-1.69-7.96-1.59-2.34-3.89-3.89-6.48-4.35-5.58-.96-11.74.74-16.89,4.67-5.13,3.92-8.39,9.4-8.94,15.05-.29,3.45.91,7.89,4.26,9.98l.17.11c.41.3,1.06.44,1.56.45-.34-.46-.82-.95-1.31-1.46-1.13-1.16-2.4-2.48-3.03-4.31-1.35-4.36-.71-8.87,1.83-13.11,3.23-5.38,9.22-9.62,15.27-10.78,4.66-1.09,9.35.33,12.12,3.72,2.56,3.14,2.97,7.45,1.09,11.54-.76,1.7-1.94,3.12-2.97,4.38-.54.66-1.05,1.28-1.48,1.9l-.1.14c-.67.85-.68,1.25.73,3.61,1.17,1.96,2.78,4.65,1.4,7.88l-.07.15c-1.87,3.71-7.21,5.49-10.4,5.57h-.25s-.46-.08-.46-.08c-1.52-.35-3.22-1.53-2.68-5.18l.06-.44c.45-2.69,1.13-6.71,1.81-10.77.7-4.15,1.41-8.35,1.88-11.2l.08-.51c.15-.91.28-1.77.2-2.43-.5.76-.65,1.57-.89,3.15-.1.68-.21,1.41-.38,2.22ZM46.85,86.89c-.54,3.19-1.05,6.24-1.43,8.51,1.7-.46,3.45-1.38,4.01-2.38.27-.75-.14-1.56-1.11-3.19-.48-.8-1.07-1.79-1.47-2.94ZM30.88,92.1h0ZM39.26,68.83c-2.8,1.58-5.28,3.88-6.84,6.49-1.24,2.07-2.48,5.29-1.36,8.9.24.68,1.02,1.49,1.85,2.35.88.91,1.88,1.94,2.54,3.23l2.56-15.23c.15-.72.25-1.37.34-1.98.19-1.23.38-2.48.91-3.75ZM48.41,66.93c.47.71.79,1.57.92,2.51.21,1.4-.02,2.78-.21,4l-.08.51c-.3,1.78-.68,4.06-1.1,6.53.53-.77,1.12-1.48,1.68-2.16.91-1.11,1.77-2.15,2.26-3.25,1.09-2.37.94-4.56-.4-6.2-.77-.94-1.84-1.6-3.07-1.94Z"/>
      <path class="cls-1" d="M70.55,99.43c-.81,0-1.62-.1-2.41-.31-3.46-.9-6.15-3.71-7.19-7.51l-.04-.12c-1.83-6.34-.35-13.53,3.76-18.32,2.67-3.17,6.65-4.72,10.34-4.03,3.4.63,6.05,3.04,7.29,6.6,2.54,6.99.86,15.36-4.1,20.33-2.16,2.18-4.9,3.36-7.65,3.36ZM65.8,90.05l.04.12c.59,2.13,1.89,3.56,3.59,4.01,1.03.27,2.11.16,3.13-.29-.14.04-.28.08-.43.1-1.38.25-3.41-.06-5.28-2.98l-.3-.64c-1.31-3.65-.32-8.47.17-10.37.14-.61.37-1.29.7-1.96-2.1,3.42-2.76,8-1.61,12ZM72.47,74.27c.94,0,1.88.31,2.74.91,3.74,2.48,2.47,9.81,2.17,11.26-.28,1.35-.79,3.22-1.72,4.77,2.71-3.67,3.5-9.18,1.83-13.76-.65-1.87-1.82-2.99-3.41-3.29-.81-.15-1.66-.08-2.48.2.29-.06.58-.09.87-.09ZM71.29,88.48s.03.04.04.05c.45-.8,1.02-2.36,1.28-4.52.26-2.21.03-3.69-.21-4.35-.26.35-.58.93-.72,1.56-.74,2.88-.88,5.67-.39,7.27ZM72.22,79.31h0Z"/>
      <path class="cls-1" d="M88.44,94.73c-1.17,0-2.4-.29-3.7-1.05l-.21-.14c-4.93-3.59-3.96-9.04-3.18-13.43.17-.97.35-1.97.47-2.92l.02-.11,2.74-16.23c.17-.86.28-1.54.37-2.17.25-1.66.49-3.23,1.46-5.03,1.11-1.95,3.07-3.03,5.02-2.8,1.87.22,3.4,1.6,3.97,3.6.5,1.85.24,3.39-.03,5.02-.06.33-.11.68-.17,1.05l-2.54,15.2c-.15.92-.3,1.82-.45,2.71-.12.72-.25,1.43-.36,2.13.64-1.21,1.09-2.67,1.56-4.19.17-.55.34-1.09.52-1.62,1.71-5.33,5.83-10.42,11.29-13.94l.14-.09c2.28-1.27,3.46-3.11,3.85-5.97l.04-.23c.15-.67.26-1.38.38-2.13.38-2.42.81-5.17,2.9-7.2,1.23-1.16,2.85-1.55,4.38-1.08,1.64.51,2.96,1.97,3.34,3.72l.03.14c.37,2.31.04,3.99-.34,5.93-.17.9-.37,1.91-.53,3.15l-2.09,12.49c-.11,1.03-.32,2.09-.52,3.11-.11.54-.25,1.25-.35,1.92.05-.05.09-.1.13-.15.49-.53.95-1.04,1.45-1.44,1.89-1.64,3.58-2.29,5.16-2,1.18.22,2.17.97,2.77,2.11l.25.65c.55,2.18-.26,4.76-2.35,7.45-2.39,3.08-6.59,6.36-9.79,6.5-.52.07-1.05.11-1.57.16-.83.07-1.62.14-2.31.3-.88.19-1.75.63-2.67,1.09-.8.41-1.62.82-2.55,1.15-1.77.61-3.48.52-4.85.44-.84-.05-1.63-.09-2.22.03-.96.19-2.05.85-3.2,1.54-1.7,1.03-3.83,2.32-6.26,2.32ZM87.43,89.33c1.15.62,2.11.25,4.63-1.29,1.4-.85,2.99-1.81,4.81-2.18,1.23-.26,2.46-.19,3.54-.13,1.11.06,2.07.12,2.88-.16.52-.18,1.08-.46,1.68-.76-.45.2-.94.34-1.45.41l-.2.02c-1.58.09-2.98-.53-3.92-1.73-1.33-1.71-1.35-4.1-1.06-5.77-.01.04-.03.09-.04.13-.93,2.98-1.98,6.36-4.81,8.67-1.67,1.34-3.55,1.62-5.05.78-.74-.41-2.4-1.73-1.99-5,.2-1.66.46-3.17.74-4.78.15-.86.3-1.74.44-2.65l2.54-15.17c.05-.36.12-.74.18-1.1.13-.8.23-1.39.24-1.88-.3.76-.42,1.55-.59,2.7-.11.69-.22,1.45-.4,2.32l-2.71,16.1c-.13,1.07-.32,2.12-.5,3.13-.82,4.58-.97,6.78,1.05,8.33ZM108.93,64.72c.19,0,.39.02.59.06.89.17,1.66.75,2.09,1.57l.08.17c.5,1.15.28,2.51-.1,4.75l-.17,1.07c-.1.57-.19,1.12-.27,1.68-.29,1.9-.6,3.87-1.28,5.42l-.08.19c-.2.42-1.67,3.42-4.17,4.87,1.02-.51,2.15-1.04,3.44-1.31.99-.24,2.02-.33,3.01-.41.48-.04.97-.08,1.45-.15l.34-.02c.62,0,2.35-.94,4.07-2.49-1.31.89-2.92,1.37-4.69.37l-.28-.15-.23-.22c-2.2-2.09-1.53-5.47-.93-8.45.2-.98.38-1.9.46-2.71l.02-.17,2.09-12.48c.17-1.3.38-2.41.57-3.38.22-1.14.38-1.97.4-2.82-.31.84-.48,1.91-.66,3.08-.12.76-.24,1.55-.42,2.35-.57,4.07-2.48,7.16-5.68,9.2.11-.01.23-.02.35-.02ZM106.12,73.12c-1.12,1.41-2.13,3.09-2.64,4.98-.19.63-.23,1.33-.18,1.8.56-.44,1.35-1.38,1.85-2.43l.04-.09c.41-.93.67-2.64.91-4.15l.02-.11ZM122.59,76.01h0ZM90.45,55.72h0Z"/>
      <path class="cls-1" d="M186.22,67.68c-2.69,0-5.33-.9-7.48-2.66-2.41-1.77-3.51-5.21-2.46-7.7.63-1.49,2.22-2.91,4.79-2.65-.49-.18-.96-.46-1.36-.82l-.07-.07c-2.27-2.17-1.88-4.96-1.54-7.43l.12-.79c.17-.71.29-1.61.43-2.56.45-3.2,1.02-7.19,4.01-8.92l.34-.16c1.64-.65,2.94-.36,3.73,0,2.17.97,3.06,3.33,3.83,5.41.29.77.72,1.92.99,2.22l.24.29c.52.75,1.09,1.51,1.7,2.31,2.09,2.75,4.46,5.86,5,9.81.75,4.88-1.56,9.51-6.04,12.05-1.98,1.12-4.13,1.67-6.24,1.67ZM181.1,59.95c.13.36.36.75.68.98l.15.11c2.68,2.22,5.9,1.73,8.02.53,2.03-1.15,4.01-3.56,3.51-6.88-.36-2.67-2.14-4.99-4.01-7.45-.59-.77-1.19-1.57-1.76-2.38-.88-1.02-1.39-2.41-1.9-3.75-.24-.65-.62-1.65-.94-2.21-.61.99-.94,3.33-1.15,4.82-.14,1.02-.28,1.99-.49,2.89l-.06.44c-.14,1.01-.23,1.74-.22,2.24.03-.03.05-.06.08-.09.62-.73,1.55-1.82,3.11-2.02l.66-.03.33.08c2.26.54,4.04,2.68,5.27,6.37.6,1.89.29,3.99-.81,5.66-1.02,1.54-2.6,2.53-4.36,2.71-2.09.23-3.76-.71-5.09-1.47-.36-.2-.71-.4-1.02-.55ZM180.44,59.75h0ZM182.3,54.94c.87.29,1.64.73,2.33,1.12.77.44,1.56.88,2.04.84.31-.03.51-.26.63-.44.25-.38.34-.9.22-1.28-.35-1.04-.7-1.75-1-2.23-.48.54-1.11,1.14-1.98,1.55-.71.35-1.48.49-2.25.44Z"/>
    </g>
    <path class="cls-1" d="M123.2,242.73c-2.86,0-5.72-.11-8.59-.32-21.77-1.26-43.06-8.83-61.5-21.89-18.38-13.02-32.63-30.55-41.2-50.71C-4.26,132.85-.47,90.28,22.06,55.95,44.48,21.79,81.83,1.44,122.04,1.44c.14,0,.28,0,.42,0h.16c.11,0,.22,0,.32,0,61.76,0,114.25,48.16,119.58,109.78,3.42,34.75-8.97,69.39-33.98,95.01-22.91,23.46-53.61,36.5-85.34,36.5ZM122.04,6.54c-38.48,0-74.24,19.49-95.71,52.21C4.74,91.63,1.11,132.39,16.6,167.78c8.21,19.31,21.85,36.09,39.46,48.57,17.66,12.51,38.03,19.76,58.89,20.97,33.27,2.48,66.02-10.16,89.94-34.65,23.96-24.54,35.83-57.7,32.55-90.98C232.34,52.66,182.07,6.54,122.94,6.54c-.1,0-.2,0-.31,0h-.17c-.14,0-.28,0-.41,0ZM122.52,237.06h-.17c-23.49-.03-46.64-7.26-65.18-20.35l-3.49-2.47,3.83-1.9c1.39-.69,6.37-2.27,14.24-4.56-9.4,2.59-15.73,4.34-17.35,4.78-1.85.43-2.93-.33-3.72-.88-.13-.09-.27-.19-.44-.31l-.14-.1c-.98-.75-2.66-2.18-3.91-3.31-21.49-19.1-35.33-46.33-37.95-74.71-.07-1.15-.25-3.99,2.38-4.63,12.02-3.32,199.67-55.08,211.5-58.34.22-.06.78-.21,1.47-.07,1.74.32,2.55,2.02,3.27,3.52,6.65,14.41,10.2,29.81,10.55,45.79.17,9.45-.71,18.45-2.59,26.77l-.11.37c-.41,1.28-.88,2.72-2.91,3.31l-.19.05c-4.46.92-27.76,7.5-54.75,15.12-81.16,22.92-102.93,28.67-105.84,28l-2.33-.54.4-2.36c1.57-9.34,3.64-21.59,5.62-33.25,1.46-8.59,2.86-16.88,3.97-23.46l.14-.92c.7-4.62,1.03-8.26-1.56-9.51-6.42-2-18.36,4.91-24.57,10.73-7.56,7.01-12.25,15.75-13.22,24.61-1.27,10.5,4.48,18.84,10.54,21.37,1.99.81,4.06.86,5.26.12.45-.27.74-.64.84-1.04.07-.29.04-.55-.1-.79-.48-.87-1.67-1.73-2.17-2.07-6.3-3.65-9.41-8.92-9.25-15.69.22-10.52,6.76-20.98,17.5-27.98,1.97-1.26,4.1-2.4,6.03-3.19.95-.38,3.09-1.23,4.67.15,1.26,1.14,1.09,2.67,1.03,3.24l-.03.26c-.29,1.73-.82,4.87-1.49,8.83l-1.45,8.57c-1.27,7.52-2.55,15.06-3.76,22.16-1.01,5.96-1.97,11.6-2.82,16.64-.11.86-.28,1.75-.43,2.61-.71,3.88-1.02,6.37.7,8.06.97.75,3.31.78,4.8.29l.12-.04c6.07-1.67,46.62-12.85,85.2-23.49,34.3-9.46,67.03-18.49,72.56-20.01.38-.1.84-.19,1.39-.12.82.11,1.54.58,1.97,1.29.41.68.82,1.89-.36,4.52l-.22.43c-.34.66-.92,1.75-2.4,2.23l-.11.03c-14.65,4.03-45.61,12.57-77.37,21.34,6.29-1.71,12.79-3.46,19.45-5.26,27.18-7.35,50.66-13.7,54.21-14.89l.36-.09c.96-.17,1.87.11,2.51.76.38.39.98,1.25.7,2.62-.1.49-.31,1.07-.74,1.99-6.26,13.15-15.27,25.33-26.08,35.27-21.34,19.67-49.04,30.5-77.99,30.5ZM64.29,215.33c16.93,10.72,37.35,16.59,58.06,16.62h.17c27.67,0,54.14-10.35,74.54-29.15,9.45-8.69,17.46-19.18,23.32-30.49-8.81,2.5-27.34,7.51-49.51,13.5-36.98,10-90.45,24.45-106.58,29.52ZM53.15,207.18c.17.11.31.21.44.31,1.48-.41,4.89-1.35,9.78-2.69-.81-.3-1.57-.71-2.22-1.27l-.11-.1c-3.91-3.72-3-8.72-2.26-12.74.16-.85.3-1.65.4-2.39v-.1c.35-1.99.7-4.07,1.07-6.22-.58.93-1.39,1.73-2.36,2.31-2.59,1.59-6.28,1.68-9.84.22-10.56-4.41-14.86-16.75-13.66-26.67,1.1-10.05,6.36-19.92,14.81-27.76,6.61-6.19,20.56-14.88,29.79-11.8l.23.09c6.48,2.88,5.33,10.46,4.64,14.99l-.14.94c-1.12,6.64-2.52,14.92-3.98,23.52-1.75,10.3-3.57,21.05-5.05,29.86,13.18-2.71,65.21-17.41,100.79-27.46,26.9-7.6,48.41-13.67,54.35-15.05,0-.03.02-.06.03-.09l.02-.05c1.78-7.89,2.6-16.45,2.44-25.43-.34-15.26-3.72-29.98-10.07-43.72-.05-.11-.1-.22-.15-.31-20.01,5.52-188.51,52-208.73,57.58,2.56,26.92,15.76,52.81,36.24,71,1.14,1.03,2.67,2.33,3.56,3.02ZM68.27,134.68c-1.14.57-2.33,1.24-3.43,1.95-7.18,4.69-14.95,13.41-15.17,23.82-.12,4.93,2.04,8.49,6.78,11.21l.18.11c1.28.88,2.86,2.11,3.79,3.8.3.5.51,1.04.65,1.61.31-1.85.63-3.74.96-5.67,1.2-7.09,2.49-14.64,3.75-22.15l1.45-8.58c.4-2.37.75-4.44,1.03-6.1ZM221.57,74.64h0ZM10.63,128.4c-.8,0-1.54-.32-2.08-.91-1.05-1.14-.99-2.95-.87-3.92l.16-1.26,1.12-.68c2.26-1.28,9.29-3.59,19.88-6.7-9.56,2.52-15.94,4.07-18.11,4.32l-2.9.33.06-2.92c.67-33.56,17.36-65.03,45.78-86.32C82.43,8.82,117.87,1.61,150.91,10.57c28.39,7.16,53.66,25.66,69.27,50.74.4.62,1.84,2.9,2.7,4.69,1.06,2.41-.12,3.63-.67,4.05l-.39.29-.47.13c-23.47,6.51-171.03,47.13-209.95,57.83l-.24.05c-.18.03-.35.04-.53.04ZM122.63,11.92c-23.11,0-46.14,7.73-65.9,22.52C30.47,54.11,14.7,82.83,13.11,113.63c12.36-2.75,54.38-14.53,85.9-23.37,20.88-5.86,37.75-10.59,43.76-12.1,0-.08-.02-.16-.02-.25-.06-.44-.13-.9-.19-1.37-.09-.62-.18-1.24-.25-1.84-.38-2.86-.58-5.74-.6-8.56-.01-.6,0-1.26.01-1.89.02-.84.05-2.06-.08-2.58-.32-.04-.96,0-1.36.03-.58.04-1.23.08-1.89.03-2.07-.02-3.89-1.06-4.66-2.67-.73-1.51-.44-3.29.75-4.76l.15-.17c1.55-1.58,3.48-2.3,5.19-2.94,1.5-.56,2.79-1.04,3.5-1.95l.11-.13c.69-.77,1.15-1.93,1.64-3.15l.27-.67c2.6-6.43,6.46-12,11.45-16.57,2.52-2.26,7.13-5.8,11.88-6.43-6.12-2.85-12.49-5.13-19.05-6.79-8.88-2.41-17.94-3.59-26.99-3.59ZM141.16,56.55c1.6,0,3.66.35,4.88,2.47.87,1.48.83,3.35.78,5.33-.01.56-.03,1.14-.01,1.71.02,2.65.2,5.31.56,7.97.08.59.16,1.19.25,1.78.07.51.15,1.01.21,1.48v.12c.04.27.06.51.08.72.13,1.18.4,3.64-2.33,4.59l-.27.08c-4.16.95-23.04,6.24-44.91,12.37-4.86,1.36-9.61,2.7-14.22,3.99,5.23-1.4,10.62-2.84,16.16-4.32,22.28-5.94,41.52-11.07,45.51-12.51l.2-.06c.06-.02.11-.03.15-.04.05-.12.15-.38.26-.87.22-1.05.16-2.79-.18-4.7-.88-5.82-1.68-12.5-.24-18.84l.12-.4c1.06-2.6,2.93-3.63,4.92-4.31-2.3.1-3.19-1.11-3.51-2.26l-.1-.46c-.1-.89.08-1.78.36-2.6l-.02.06c-.59,1.49-1.26,3.17-2.52,4.6-1.59,1.99-3.76,2.8-5.68,3.52-.56.21-1.11.41-1.61.64.34-.02.73-.05,1.16-.05ZM152.96,59.17c-1.18,5.41-.48,11.19.35,16.65.31,1.75.59,4.39.13,6.62-.14.6-.3,1.13-.49,1.6,28.91-7.96,53.51-14.75,64.32-17.74-.41-.71-.9-1.51-1.39-2.27-9.45-15.17-22.57-27.82-37.81-36.8,1.56,3.77.74,8.07,0,11.92-.25,1.3-.48,2.54-.61,3.65l-.02.15-3.35,19.8c-.09.43-.15.81-.21,1.18-.34,2.06-.8,4.88-3.2,6.63-1.58,1.14-3.44,1.28-4.97.4-1.79-1.03-2.89-3.37-2.69-5.7.08-1.96.5-4.32.9-6.6.21-1.21.43-2.44.57-3.47-.46.12-.95.25-1.47.4-.5.14-1.01.28-1.54.42l-5.36,1.49c-2.2.64-2.77.88-3.15,1.67ZM169.71,54c-.06,1.51-.4,3.47-.77,5.55-.38,2.14-.77,4.34-.83,5.97v.16c-.02.07-.02.15-.01.22.39-.7.57-1.76.74-2.79.07-.44.14-.87.23-1.28l3.33-19.65c.15-1.29.41-2.65.66-3.97.68-3.56,1.38-7.23-.01-9.63-.77-.8-1.63-1.2-2.69-1.26-.23-.01-.48,0-.73.01.51.07,1,.23,1.46.48,3.59,1.95,2.34,7.56,1.84,9.75-.14.78-.27,1.59-.4,2.42-.27,1.65-.54,3.36-.89,4.93-.31,1.63-1.34,3.71-4.48,4.5-.39.11-.85.24-1.36.39,1.03-.05,1.97.28,2.7.95.87.79,1.31,1.98,1.22,3.27ZM168.41,32.52c-1,.39-3.02,1.64-5.61,4.32-2.92,3.02-5.49,6.74-7.25,10.51,3.34-.93,7.98-2.22,10.27-2.88.74-.19.76-.3.8-.54l.02-.1c.32-1.43.58-3.08.84-4.67.14-.87.28-1.73.42-2.56l.03-.13c.49-2.15.53-3.34.48-3.95Z"/>
    <path class="cls-1" d="M138.58,168.67c-.51,0-1.01-.04-1.52-.13l-.12-.02c-4.01-.71-6.77-3.29-7.4-6.91-.72-3.35-.68-6.75-.64-10.04v-.23c.14-5.28.69-11.36,1.2-16.64.13-1,.22-2.04.32-3.1.24-2.66.49-5.41,1.17-7.44.84-2.47,3.06-4.45,5.66-5.06,2.38-.56,4.71.07,6.38,1.72,3.25,3.47,2.66,8.11,2.19,11.84-.13,1.06-.26,2.07-.3,2.98v.14c-.41,4.04-.72,7.67-.94,11.08l-.05.69c-.03.46-.07,1-.1,1.53,7.37-5.58,11.19-17.1,12.31-26.24.07-.54.11-1.06.15-1.58.19-2.59.43-5.81,3.92-8.16,1.74-1.23,4.01-1.53,6.17-.78,2.42.84,4.37,2.83,5.08,5.21l.06.24c.64,3.29.04,6.77-.49,9.84-.11.61-.21,1.22-.3,1.82l-.02.11c-1.21,6-2.79,11.12-4.84,15.62-4.35,10.85-16.52,20.82-24.78,23.03-1.09.33-2.09.49-3.08.49ZM137.8,163.49h.09c.71.14,1.42.06,2.31-.21l.1-.03c6.12-1.61,17.5-10.22,21.41-20.05l.05-.11c1.89-4.15,3.36-8.9,4.5-14.52.1-.6.2-1.22.31-1.83.47-2.72.95-5.53.54-7.87-.27-.76-.99-1.46-1.82-1.74-.62-.21-1.16-.16-1.61.15-1.42.96-1.56,2.03-1.73,4.35-.04.6-.09,1.21-.17,1.83-.62,5.1-3.57,22.39-15.21,30.34-.8.59-3.07,2.23-5.24,1.04-2.36-1.29-2.15-4.24-1.91-7.65l.05-.67c.22-3.45.53-7.12.94-11.19.05-1.09.2-2.23.33-3.32.39-3.08.76-5.99-.78-7.64-.35-.34-.89-.47-1.55-.31-.9.21-1.72.92-2,1.72-.48,1.45-.71,4.01-.92,6.28-.1,1.13-.2,2.23-.33,3.21-.49,5.12-1.04,11.09-1.17,16.17v.2c-.04,3.03-.08,6.15.53,8.95l.02.12c.33,1.98,2.18,2.6,3.26,2.79ZM141.96,160.76v-5.1s0,0,0,0v5.1Z"/>
    <path class="cls-1" d="M105.56,176.77h-.33c-4.35-.22-8.14-1.98-10.95-5.1-3.9-4.33-5.82-11.04-5.4-18.91.65-8.83,4-16.47,9.42-21.57,5.44-5.45,15.41-7.51,21.92-1.24,5.06,4.72,7.45,12.56,6.51,21.48-1.29,11.73-8.44,24.65-21.11,25.33h-.08ZM105.43,171.66h0c9.64-.57,15.17-11.15,16.23-20.77.77-7.3-1.04-13.59-4.95-17.23-4.31-4.16-11.06-2.61-14.86,1.19-4.55,4.28-7.33,10.74-7.88,18.23-.34,6.36,1.15,11.9,4.1,15.17,1.9,2.1,4.37,3.25,7.36,3.41ZM105.83,166.38c-.4,0-.77-.05-1.07-.11-1.76-.38-4.81-2.02-5.53-8.76-.41-3.34.25-8.07,1.68-12,1.94-5.32,5.07-8.56,8.82-9.13l.29-.04.64.06c4.15.73,5.22,5.43,5.62,7.2l.02.11c.97,5.31-.21,11.95-3,16.9-2.79,4.76-5.59,5.77-7.46,5.77ZM110.01,141.54c-3.97,1.29-6.27,10.86-5.72,15.39.36,3.34,1.36,4.3,1.54,4.35.18.05,1.43-.46,3.04-3.21,2.18-3.87,3.15-9.26,2.42-13.4-.49-2.15-.97-2.89-1.28-3.14Z"/>
    <path class="cls-1" d="M191.74,153h-.03c-6.03-.08-11.11-2.39-14.71-6.68-4.14-4.94-5.83-12-4.62-19.37,1.56-9.19,6.88-20.26,17.1-23.85l.1-.03c5.79-1.76,11.33-.33,14.83,3.81,3.55,4.19,4.05,10.23,1.32,15.77-2.81,6.42-8.45,10.15-12.7,12.16-.67.34-1.4.65-2.1.96-.77.33-1.86.8-2.41,1.17.15.15.38.34.71.55,1.36.84,3.49.97,5.67.33,2.43-.7,4.36-2.07,6.08-3.44,2.13-1.7,6.1-4.86,10.44-2.81l.33.19c3.31,2.21,3.55,4.96,3.4,6.41-.67,6.36-10.74,11.63-13.4,12.7-3.38,1.38-6.79,2.13-9.83,2.16h-.2ZM191.12,107.93c-8.11,2.88-12.45,12.49-13.7,19.86-.96,5.88.32,11.45,3.5,15.25,2.61,3.11,6.35,4.79,10.84,4.85h.13c2.4-.02,5.15-.64,7.96-1.79,3.93-1.58,9.95-5.83,10.23-8.5.02-.23.08-.74-.98-1.51-1.34-.48-3.24.9-4.93,2.25-2.03,1.62-4.55,3.4-7.84,4.35-3.58,1.04-7.15.71-9.78-.9-3.73-2.35-3.76-5.38-2.67-7.27,1.03-1.74,2.98-2.58,5.04-3.47.63-.27,1.27-.55,1.89-.86,3.52-1.66,8.11-4.67,10.28-9.67l.06-.12c1.87-3.76,1.64-7.59-.62-10.26-2.13-2.52-5.64-3.36-9.4-2.24ZM186.25,127.65c-1.38,0-2.18-.75-2.5-1.14-1.41-1.71-.53-4.12.12-5.4,2.07-4.29,5.6-9.51,10.53-9.75h.17s.49.04.49.04c1.38.23,2.44.99,2.98,2.14,1.14,2.39-.51,5.3-1.5,7.03l-.18.31c-2.23,3.53-5.96,5.5-8.69,6.53l-.2.06c-.45.13-.86.18-1.23.18ZM192.3,117.72c-.67.62-1.35,1.44-2.03,2.44.67-.56,1.27-1.21,1.75-1.96l.09-.16c.06-.11.12-.22.18-.32Z"/>
  </g>
</svg>