<?xml version="1.0" encoding="UTF-8"?>
<svg id="Layer_1" data-name="Layer 1" xmlns="http://www.w3.org/2000/svg" viewBox="0 0 243.78 243.78">
  <defs>
    <style>
      .cls-1 {
        fill: #fff;
      }

      .cls-2 {
        opacity: .93;
      }
    </style>
  </defs>
  <g class="cls-2">
    <g>
      <path class="cls-1" d="M40.84,105.78c-1.52,0-2.73-.42-3.6-1.25-1.7-1.62-2.01-4.63-.96-9.21l3.42-20.35c.17-.79.27-1.47.36-2.11.28-1.84.52-3.44,1.84-5.09.94-1.1,2.2-1.53,3.4-1.18,1.26.38,2.17,1.56,2.37,3.09.17,1.17-.02,2.37-.21,3.52l-.08.51c-.48,2.86-1.18,7.04-1.88,11.18-.69,4.07-1.37,8.1-1.82,10.79,0,.09-.03.23-.05.38-.13.92-.12,1.27.04,1.35,2.33-.1,6.21-1.44,7.35-3.7.68-1.59-.2-3.06-1.21-4.75-1.22-2.05-2.75-4.6-.47-7.46.48-.7,1.06-1.41,1.63-2.09.99-1.2,1.92-2.33,2.5-3.63,1.35-2.93,1.11-5.84-.63-7.98-1.95-2.38-5.32-3.36-8.81-2.54-5.17,1-10.28,4.61-13.03,9.2-1.42,2.37-2.83,6.07-1.53,10.28.38,1.09,1.29,2.03,2.25,3.03.9.92,1.82,1.88,2.35,3.04.5,1.48.18,2.71-.85,3.46-1.53,1.11-4.43.93-6.21-.38-3.97-2.46-6.27-7.64-5.8-13.15.64-6.59,4.38-12.94,10.26-17.43,5.9-4.5,13.03-6.44,19.55-5.32,3.51.63,6.6,2.68,8.71,5.79,2.13,3.15,2.94,6.99,2.21,10.55-.22,2.21-1.56,4.44-2.74,6.41-.7,1.17-1.37,2.28-1.68,3.21-.29,1.33.29,2.73.91,4.21.66,1.59,1.34,3.24,1.06,5.13-.46,8.28-9.74,10.58-15.29,11.96-1.24.35-2.36.52-3.35.52ZM44.48,68.17c-.44,0-.88.24-1.26.68-1.02,1.28-1.21,2.53-1.47,4.27-.1.67-.21,1.38-.38,2.17l-3.42,20.37c-.89,3.88-.73,6.51.47,7.65.97.93,2.77,1.03,5.34.31,6.91-1.72,13.67-3.94,14.03-10.49.22-1.5-.34-2.86-.94-4.3-.69-1.66-1.39-3.37-.97-5.32.4-1.2,1.11-2.38,1.86-3.63,1.09-1.82,2.32-3.88,2.52-5.8.65-3.19-.06-6.57-1.93-9.34-1.85-2.73-4.54-4.53-7.59-5.07-6.05-1.04-12.7.78-18.23,4.99-5.51,4.2-9.01,10.12-9.6,16.23-.34,3.99,1.09,9.12,5.06,11.59,1.22.89,3.34,1.08,4.25.41.17-.12.61-.44.27-1.46-.38-.81-1.16-1.62-1.99-2.48-1.05-1.09-2.14-2.21-2.65-3.68-1.19-3.83-.6-7.86,1.69-11.68,2.99-4.99,8.54-8.91,14.13-9.99,4.09-.96,8.12.24,10.48,3.13,2.17,2.66,2.49,6.22.86,9.76-.68,1.5-1.72,2.78-2.74,4.01-.57.69-1.1,1.34-1.57,2.02-1.5,1.9-.76,3.36.57,5.58,1.09,1.83,2.33,3.9,1.29,6.34-1.55,3.09-6.25,4.62-8.95,4.69h-.09s-.16-.03-.16-.03c-1.84-.42-1.56-2.35-1.42-3.28.02-.13.04-.26.05-.37.46-2.74,1.14-6.77,1.82-10.84.7-4.14,1.4-8.33,1.88-11.17l.08-.52c.17-1.08.33-2.09.2-3.02-.11-.87-.56-1.51-1.17-1.69-.11-.03-.23-.05-.34-.05Z"/>
      <path class="cls-1" d="M70.58,97.75c-.66,0-1.33-.08-1.98-.25-2.91-.76-5.09-3.06-5.99-6.32l-.04-.14c-1.67-5.8-.33-12.37,3.42-16.74,2.29-2.71,5.64-4.04,8.74-3.47,2.78.52,4.96,2.51,5.99,5.48,2.33,6.41.81,14.05-3.7,18.57-1.83,1.86-4.15,2.86-6.45,2.86ZM64.21,90.56l.04.14c.74,2.68,2.48,4.55,4.78,5.15,2.31.61,4.85-.2,6.79-2.16,4-4,5.38-11.07,3.3-16.8-.84-2.42-2.51-3.97-4.7-4.38-2.5-.46-5.24.65-7.14,2.9-3.34,3.88-4.57,9.97-3.08,15.15ZM71.41,92.39c-1.09,0-2.13-.76-3.09-2.27l-.12-.26c-1.2-3.33-.15-8.04.2-9.41.37-1.61,1.5-3.65,3.11-4.27.64-.24,1.64-.37,2.76.41,2.08,1.38,2.25,5.78,1.48,9.53-.35,1.72-1.43,5.77-3.89,6.23-.15.03-.3.04-.44.04ZM69.78,89.26c.64.99,1.29,1.5,1.76,1.41.79-.15,1.92-1.88,2.54-4.89.72-3.53.37-7.02-.78-7.78-.57-.4-.95-.32-1.19-.23-.93.36-1.78,1.85-2.06,3.08-.66,2.59-1.08,6.14-.27,8.4v.02Z"/>
      <path class="cls-1" d="M88.49,93.04c-.91,0-1.86-.23-2.85-.81-4.14-3.01-3.34-7.48-2.57-11.8.18-.99.36-2.01.48-3.01l2.74-16.27c.17-.84.28-1.55.38-2.19.25-1.64.45-2.94,1.28-4.48.75-1.32,2.06-2.07,3.33-1.92,1.2.14,2.15,1.03,2.54,2.38.39,1.46.17,2.76-.08,4.26-.06.34-.12.7-.17,1.08l-1.08,6.48c-.51,3.02-1.04,6.21-1.45,8.69-.15.93-.3,1.82-.45,2.7-.27,1.56-.53,3.04-.72,4.62-.12.93.05,1.48.28,1.6.2.11.67.01,1.24-.45,2.03-1.66,2.88-4.4,3.71-7.05.17-.54.33-1.07.51-1.58,1.6-4.98,5.46-9.74,10.6-13.05,2.8-1.56,4.3-3.86,4.75-7.26.18-.8.3-1.57.42-2.32.36-2.26.72-4.6,2.41-6.25.76-.72,1.74-.97,2.69-.68,1.07.33,1.92,1.29,2.18,2.46.33,2.06.04,3.53-.32,5.39-.18.92-.38,1.97-.55,3.26l-2.1,12.51c-.09.91-.3,1.96-.5,2.98-.41,2.05-.87,4.37-.14,5.23.71.27,1.71-.74,2.84-1.98.46-.5.89-.97,1.3-1.3,1.43-1.26,2.71-1.81,3.74-1.62.47.09,1.12.37,1.58,1.23l.11.27c.53,2.09-.82,4.41-2.05,5.99-2.21,2.84-6,5.79-8.58,5.84-.52.07-1.05.11-1.58.16-.9.08-1.75.15-2.57.35-1.05.22-2.01.71-3.04,1.23-.75.38-1.52.77-2.34,1.06-1.45.5-2.84.42-4.19.34-.95-.05-1.85-.11-2.66.07-1.24.25-2.45.98-3.72,1.75-1.63.99-3.41,2.06-5.37,2.06ZM90.95,54.24c-.56,0-1.14.4-1.51,1.06-.68,1.27-.85,2.37-1.09,3.91-.1.67-.21,1.4-.38,2.24l-2.73,16.21c-.12,1.01-.31,2.05-.49,3.07-.74,4.16-1.38,7.74,1.83,10.08,2.18,1.28,4.14.09,6.41-1.28,1.35-.82,2.74-1.66,4.26-1.96,1.03-.22,2.08-.16,3.1-.1,1.24.07,2.41.14,3.53-.25.71-.25,1.4-.6,2.13-.97,1.08-.55,2.19-1.11,3.43-1.37.92-.22,1.88-.3,2.8-.38.51-.04,1.03-.09,1.54-.16h.11c1.75-.01,5.17-2.44,7.3-5.19,1.36-1.75,2-3.38,1.76-4.47-.16-.27-.29-.29-.36-.31-.37-.07-1.17.23-2.34,1.25-.34.27-.73.69-1.14,1.14-1.3,1.42-3.07,3.36-5.02,2.27l-.17-.12c-1.52-1.44-.97-4.21-.43-6.88.19-.98.4-1.99.48-2.87l2.1-12.54c.17-1.31.38-2.39.56-3.33.36-1.83.59-3.03.32-4.75-.11-.52-.52-1-1.01-1.15-.36-.11-.7-.02-1.01.28-1.27,1.24-1.58,3.2-1.91,5.28-.12.77-.25,1.57-.42,2.35-.51,3.85-2.33,6.63-5.55,8.42-4.77,3.08-8.38,7.5-9.86,12.12-.17.52-.33,1.03-.5,1.56-.86,2.75-1.83,5.88-4.26,7.86-1.11.89-2.25,1.11-3.15.61-.54-.3-1.41-1.14-1.13-3.3.2-1.62.46-3.12.73-4.7.15-.87.3-1.76.45-2.68.41-2.48.95-5.67,1.45-8.7l1.08-6.46c.06-.38.12-.75.18-1.1.24-1.42.41-2.44.12-3.53-.2-.67-.59-1.09-1.1-1.15-.04,0-.09,0-.13,0ZM103.09,83.57c-.99,0-1.77-.37-2.33-1.08-1.06-1.36-1.02-3.69-.53-5.28,1.1-4.09,3.98-7.3,6.19-9.27.16-.12.28-.22.41-.34.68-.58,1.53-1.3,2.38-1.14.39.08.71.32.91.69.32.72.15,1.81-.19,3.85l-.18,1.08c-.1.54-.18,1.1-.27,1.68-.28,1.8-.57,3.66-1.16,5l-.06.14c-.69,1.47-2.62,4.34-4.96,4.65-.08,0-.15,0-.23,0ZM108.61,68.37c-.24.17-.51.4-.66.53-.18.15-.33.28-.46.37-1.98,1.76-4.62,4.7-5.62,8.41-.37,1.21-.38,2.97.24,3.76.16.2.43.46,1.06.43,1.33-.18,2.9-2.25,3.57-3.67l.05-.11c.5-1.14.77-2.89,1.03-4.58.09-.59.18-1.16.28-1.7l.18-1.08c.13-.77.29-1.76.33-2.37Z"/>
      <path class="cls-1" d="M186.25,66c-2.33,0-4.61-.78-6.47-2.32-1.74-1.24-2.66-3.91-1.91-5.68.26-.61,1.12-1.99,3.47-1.56.92.23,1.71.68,2.47,1.11,1.05.6,2.05,1.16,3.06,1.05.75-.08,1.41-.5,1.87-1.2.53-.81.7-1.85.42-2.72-.76-2.26-1.73-3.74-2.68-4.08-.24.1-.55.47-.86.83-.48.56-1.01,1.2-1.82,1.57-.95.49-2.12.34-2.95-.39-1.66-1.59-1.38-3.63-1.05-6l.07-.54c.2-.87.33-1.8.47-2.79.42-2.99.9-6.37,3.18-7.69l.11-.05c.88-.35,1.69-.36,2.42-.03,1.52.67,2.24,2.59,2.93,4.45.41,1.1.84,2.24,1.34,2.78l.08.1c.54.79,1.13,1.56,1.75,2.38,2.06,2.7,4.19,5.5,4.67,9.01.64,4.19-1.35,8.16-5.19,10.34-1.71.97-3.57,1.45-5.4,1.45ZM180.49,58.06c-.79,0-.98.44-1.05.61-.4.93.13,2.78,1.38,3.67,2.81,2.32,6.71,2.6,9.99.73,2.52-1.43,4.99-4.44,4.35-8.61-.42-3.08-2.41-5.69-4.33-8.22-.6-.78-1.21-1.59-1.77-2.4-.71-.79-1.17-2.01-1.65-3.29-.54-1.46-1.16-3.11-2.03-3.49-.18-.08-.49-.17-1.04.04-1.52.94-1.93,3.85-2.29,6.42-.15,1.03-.28,2-.49,2.86l-.06.47c-.32,2.33-.45,3.59.52,4.51.27.24.7.3,1.05.12.5-.23.89-.69,1.27-1.14.53-.62,1.12-1.32,2.03-1.44h.27s.11.02.11.02c1.65.39,3.02,2.16,4.05,5.25.43,1.38.2,2.94-.62,4.18-.74,1.13-1.85,1.82-3.11,1.95-1.57.17-2.9-.59-4.08-1.26-.7-.4-1.36-.77-2-.93-.19-.03-.35-.05-.5-.05Z"/>
    </g>
    <path class="cls-1" d="M123.24,241.04c-2.81,0-5.63-.1-8.46-.31-21.48-1.24-42.46-8.7-60.64-21.58-18.12-12.84-32.17-30.12-40.62-49.98C-2.44,132.72,1.3,90.75,23.52,56.9,45.62,23.23,82.44,3.16,122.07,3.16c.14,0,.28,0,.42,0h.47c60.89,0,112.64,47.48,117.89,108.22,3.37,34.27-8.84,68.41-33.51,93.68-22.58,23.13-52.86,35.99-84.12,35.99ZM122.07,4.86c-39.06,0-75.34,19.78-97.13,52.98C3.04,91.2-.65,132.57,15.08,168.49c8.33,19.58,22.17,36.61,40.04,49.27,17.92,12.7,38.59,20.05,59.77,21.28,33.73,2.49,66.98-10.31,91.25-35.16,24.31-24.9,36.35-58.56,33.03-92.33C233.99,51.66,182.98,4.86,122.97,4.86c-.11,0-.21,0-.31,0h-.16c-.14,0-.28,0-.42,0ZM122.39,235.38h0c-23.15-.04-45.95-7.15-64.2-20.04l-1.17-.82,1.28-.63c4.98-2.47,64.15-18.47,111.69-31.32,27.22-7.36,50.74-13.72,54.33-14.92l.12-.03c.53-.1.86.13,1,.28.26.27.35.64.25,1.09-.07.34-.26.84-.61,1.62-6.16,12.93-15.04,24.94-25.68,34.74-21.03,19.38-48.32,30.05-76.84,30.05h-.17ZM60.46,214.84c17.75,12.12,39.67,18.8,61.93,18.83h.15s0,0,.01,0c28.1,0,54.98-10.51,75.69-29.6,10.49-9.65,19.23-21.48,25.29-34.2.04-.09.08-.17.11-.25-6.02,1.81-27.09,7.51-53.22,14.57-42.35,11.45-99.44,26.89-109.98,30.64ZM53.37,211.01c-.67,0-1.12-.31-1.69-.71-.14-.09-.29-.2-.47-.32-.99-.76-2.62-2.14-3.85-3.26-21.18-18.83-34.82-45.65-37.4-73.6-.07-1.09-.16-2.55,1.13-2.84,8.85-2.44,121.7-33.57,179.07-49.4l32.44-8.95c.2-.05.44-.1.73-.04.73.11,1.22.89,2.02,2.58,6.55,14.18,10.04,29.35,10.38,45.09.16,9.31-.69,18.17-2.55,26.36l-.07.23c-.38,1.2-.6,1.86-1.76,2.2-4.58.95-27.92,7.54-54.95,15.17-59.57,16.83-102,28.65-104.97,27.97l-.78-.18.13-.79c1.57-9.35,3.65-21.61,5.63-33.29,1.46-8.58,2.86-16.85,3.96-23.42l.14-.95c.65-4.25,1.45-9.55-2.65-11.37-4.39-1.46-15.53.98-26.32,11.09-7.85,7.29-12.74,16.4-13.75,25.67-1.05,8.66,2.59,19.37,11.57,23.12,2.52,1.03,5.13,1.03,6.8,0,.77-.46,1.32-1.14,1.56-1.92.24-.77.15-1.56-.25-2.22-.6-1.1-1.86-2.04-2.75-2.66-5.72-3.28-8.57-8.06-8.43-14.19.21-9.96,6.46-19.9,16.72-26.6,1.85-1.19,3.95-2.3,5.75-3.05,1.1-.44,2.2-.76,2.9-.14.59.54.51,1.31.46,1.77v.12c-.3,1.77-.83,4.85-1.49,8.74l-1.48,8.71c-1.26,7.43-2.52,14.89-3.72,21.92-1.03,6.06-2,11.81-2.87,16.92-.1.8-.26,1.65-.42,2.54-.65,3.54-1.32,7.21,1.25,9.66,1.6,1.35,4.74,1.18,6.44.62,6.03-1.66,45.63-12.58,83.75-23.1,34.84-9.61,68.44-18.88,74.05-20.42.22-.06.46-.11.7-.07.31.04.58.21.75.49.33.54.18,1.54-.45,2.95l-.17.33c-.29.56-.6,1.14-1.41,1.41-18.95,5.21-65.03,17.93-104.94,28.95-34.53,9.53-64.36,17.77-68.15,18.8-.23.05-.43.08-.62.08ZM11.66,131.89c-.02.15-.04.47,0,1.1,2.54,27.5,15.97,53.92,36.84,72.47,1.21,1.09,2.8,2.44,3.71,3.14.14.09.31.21.45.31.63.44.64.44.91.38,3.76-1.03,33.58-9.26,68.12-18.79,39.91-11.02,85.99-23.74,104.91-28.94.1-.03.14-.08.39-.57l.13-.25c.14-.31.24-.59.32-.83-7.23,1.99-39.72,10.95-73.37,20.23-38.12,10.52-77.72,21.44-83.71,23.08-1.9.62-5.82.93-8.07-.98-3.28-3.12-2.49-7.43-1.79-11.23.16-.87.31-1.69.41-2.48.87-5.15,1.84-10.89,2.87-16.96,1.19-7.03,2.46-14.49,3.71-21.92l1.48-8.71c.66-3.88,1.18-6.96,1.46-8.67v-.09c.01-.06.02-.13.03-.2-.19.04-.52.12-1.05.34-1.7.71-3.7,1.76-5.46,2.9-11.52,7.52-15.79,17.96-15.95,25.21-.13,5.54,2.37,9.7,7.63,12.72,1.73,1.19,2.73,2.18,3.32,3.25.63,1.06.78,2.34.4,3.57-.37,1.19-1.18,2.21-2.3,2.88-2.15,1.32-5.27,1.37-8.33.11-9.77-4.08-13.74-15.61-12.61-24.89,1.05-9.66,6.12-19.15,14.28-26.72,5.34-5,19.25-14.39,28.09-11.43,5.37,2.38,4.38,8.9,3.72,13.21l-.14.96c-1.11,6.59-2.51,14.86-3.97,23.44-1.91,11.26-3.91,23.07-5.46,32.28,7.93-.97,62.77-16.46,103.31-27.92,27.06-7.64,50.43-14.24,55-15.19q.23-.07.55-1.07l.05-.16c1.81-7.98,2.65-16.71,2.49-25.88-.34-15.51-3.78-30.45-10.22-44.4-.48-1-.74-1.42-.87-1.59l-32.33,8.91c-57.07,15.74-169.02,46.62-178.96,49.36ZM11.52,131.93s0,0,0,0c0,0,0,0,0,0ZM222.85,73.51h0ZM10.68,126.71c-.45,0-.72-.21-.85-.36-.63-.69-.47-2.24-.43-2.54l.05-.42.38-.26c6.16-3.49,54.3-16.32,92.97-26.64,22.31-5.95,41.58-11.09,45.64-12.55.81-.22,1.26-.35,1.69-2.19.27-1.31.22-3.23-.16-5.38-.85-5.63-1.63-12.11-.25-18.17l.04-.13c1.03-2.53,2.97-3.1,5.42-3.82l.86-.25,4.59-1.26c.52-.14,1.01-.27,1.49-.41,1.19-.34,2.31-.65,3.48-.8.67-.12,1.31.05,1.78.47.5.46.73,1.15.67,1.94-.04,1.35-.38,3.28-.75,5.32-.39,2.19-.79,4.46-.85,6.21-.1,1.06.34,2.19.99,2.56.13.08.54.31,1.27-.2,1.26-.92,1.55-2.7,1.84-4.43.07-.42.14-.83.22-1.23l3.35-19.77c.13-1.2.38-2.49.64-3.87.75-3.94,1.53-8.02-.32-10.98-1.1-1.21-2.4-1.84-3.96-1.93-4.31-.22-9.38,3.85-11.36,5.63-4.61,4.21-8.18,9.37-10.59,15.33l-.26.64c-.58,1.44-1.17,2.94-2.26,4.16-1.26,1.62-3.14,2.32-4.95,3-1.51.56-2.93,1.09-3.95,2.13-.2.25-.46.69-.27,1.07.21.44.9.75,1.67.75h.03c.51.04,1.02.01,1.56-.02,1.55-.11,3.48-.24,4.51,1.57.63,1.08.6,2.72.56,4.45-.01.59-.03,1.19-.01,1.79.02,2.69.21,5.43.57,8.16.08.59.16,1.2.25,1.8.07.5.14.99.2,1.46.03.32.06.57.08.8.13,1.18.25,2.29-1.2,2.8-4.29.98-23.18,6.28-45.06,12.42-37.07,10.4-83.2,23.34-89.41,24.04l-.97.11.02-.97c.66-33.04,17.1-64.02,45.1-84.99C83.06,10.52,117.96,3.41,150.5,12.23c28,7.06,52.89,25.28,68.27,49.99.83,1.3,1.96,3.17,2.61,4.53.17.4.61,1.38-.17,1.96l-.13.1-.15.04c-23.47,6.51-171.02,47.13-209.95,57.83-.11.02-.21.03-.31.03ZM11.06,124.41c0,.18,0,.35.01.49,39.17-10.77,183.35-50.46,208.73-57.5-.61-1.25-1.67-3.02-2.47-4.26-15.16-24.35-39.67-42.3-67.26-49.26-32.04-8.69-66.41-1.69-94.32,19.22C28.46,53.54,12.32,83.62,11.36,115.75c8.95-1.62,52.71-13.9,88.17-23.84,21.9-6.14,40.81-11.45,45.05-12.41.03-.02.07-.04.07-.05,0-.07-.05-.53-.09-.94-.03-.24-.05-.5-.08-.79-.06-.42-.13-.91-.2-1.4-.09-.61-.18-1.23-.25-1.82-.37-2.79-.57-5.6-.58-8.35-.01-.6,0-1.23.01-1.85.03-1.42.06-2.89-.33-3.56-.47-.83-1.42-.82-2.93-.72-.58.04-1.19.08-1.75.02-.02,0-.04,0-.06,0-1.35,0-2.6-.67-3.1-1.71-.44-.91-.24-1.99.54-2.94,1.34-1.37,3.01-1.99,4.62-2.59,1.67-.62,3.24-1.21,4.25-2.49.93-1.04,1.44-2.33,1.99-3.7l.26-.65c2.51-6.2,6.22-11.56,11.03-15.95,2.65-2.38,7.82-6.32,12.59-6.06,2.03.11,3.78.97,5.18,2.54l.08.11c2.26,3.54,1.37,8.18.59,12.28-.26,1.34-.5,2.6-.63,3.78l-3.36,19.85c-.08.4-.15.8-.21,1.19-.32,1.97-.69,4.19-2.52,5.53-1.41,1.01-2.56.62-3.12.3-1.23-.71-2.01-2.46-1.84-4.15.06-1.81.47-4.14.87-6.39.35-1.98.68-3.85.72-5.13.03-.34-.05-.52-.12-.59-.09-.08-.27-.06-.38-.04-1.09.13-2.15.44-3.27.75-.49.14-.99.28-1.51.41l-5.41,1.51c-2.22.65-3.57,1.04-4.29,2.76-1.29,5.74-.53,12.01.29,17.44.29,1.65.55,4.05.14,6.02-.49,2.14-1.21,3.01-2.84,3.45-4.06,1.47-23.37,6.61-45.71,12.57-35.86,9.56-84.71,22.59-92.19,26.27ZM152.87,51.46c-.72,0-1.4-.23-1.63-1.06l-.04-.19c-.12-1.04.4-2.24.87-3.29.08-.19.16-.37.23-.54,1.94-4.28,4.81-8.49,8.09-11.89,1.57-1.62,6.93-6.79,9.91-5.17,1.68.91,2,3.51.98,7.94-.13.76-.27,1.6-.41,2.46-.26,1.65-.54,3.35-.88,4.88-.29,1.63-1.38,2.71-3.22,3.17-2.79.81-8.96,2.52-12.19,3.41-.44.11-1.09.28-1.71.28ZM168.96,30.7c-1.48,0-4.45,1.98-7.36,4.98-3.15,3.26-5.91,7.3-7.76,11.38-.06.16-.15.35-.24.55-.29.67-.68,1.55-.74,2.16.19,0,.57-.05,1.26-.23,3.21-.88,9.37-2.59,12.18-3.41,1.23-.31,1.82-.87,2-1.87.34-1.52.61-3.19.87-4.82.14-.86.28-1.71.42-2.52,1.14-4.98.19-5.93-.12-6.1-.14-.08-.32-.12-.52-.12Z"/>
    <path class="cls-1" d="M138.61,166.99c-.42,0-.82-.03-1.24-.1l-.11-.02c-3.29-.58-5.55-2.67-6.04-5.58-.68-3.14-.64-6.47-.6-9.69v-.22c.13-5.22.69-11.25,1.19-16.5.12-.97.22-2.03.32-3.12.23-2.56.47-5.22,1.08-7.06.65-1.92,2.39-3.46,4.44-3.94,1.8-.42,3.54.04,4.79,1.28,2.65,2.84,2.14,6.86,1.69,10.41-.14,1.1-.27,2.14-.31,3.12-.41,4.13-.72,7.78-.94,11.19l-.05.68c-.1,1.43-.29,4.1.16,4.43h0s.4.08,1.62-.82c10.52-7.15,13.23-23.24,13.82-28,.07-.56.11-1.11.15-1.66.18-2.45.37-4.99,3.17-6.88,1.33-.95,3-1.16,4.67-.58,1.92.66,3.45,2.23,4.01,4.09.6,3.06.05,6.24-.48,9.32-.11.62-.21,1.23-.31,1.84-1.19,5.93-2.75,10.94-4.75,15.34-4.52,11.35-16.88,20.25-23.69,22.04-.92.28-1.77.42-2.6.42ZM137.55,165.19l.1.02c.98.16,1.93.08,3.08-.28,6.65-1.75,18.43-10.61,22.59-21.08,1.97-4.33,3.48-9.21,4.64-14.98.09-.58.2-1.2.31-1.83.5-2.92,1.03-5.95.51-8.62-.38-1.24-1.53-2.41-2.91-2.89-1.14-.39-2.25-.26-3.14.37-2.13,1.44-2.27,3.28-2.45,5.61-.04.57-.09,1.15-.16,1.74-.6,4.94-3.44,21.65-14.52,29.17-.92.68-2.3,1.54-3.43.92-1.4-.77-1.24-3.09-1.03-6.04l.05-.67c.22-3.43.53-7.09.94-11.2.04-1,.19-2.12.32-3.21.42-3.34.86-6.79-1.23-9.01-1.11-1.09-2.47-.98-3.19-.81-1.49.35-2.75,1.46-3.22,2.83-.55,1.65-.78,4.2-1,6.67-.1,1.11-.2,2.19-.32,3.15-.5,5.19-1.05,11.18-1.18,16.34v.21c-.04,3.12-.08,6.36.57,9.35.53,3.16,3.43,4.01,4.66,4.22ZM142,159.08v-1.7s0,0,0,0v1.7Z"/>
    <path class="cls-1" d="M105.39,175.08h-.04c-3.95-.2-7.23-1.72-9.77-4.53-3.6-3.99-5.36-10.27-4.96-17.68.62-8.37,3.77-15.61,8.89-20.42,4.91-4.92,13.8-6.81,19.57-1.25,4.69,4.37,6.88,11.7,6,20.08-1.21,11.03-7.84,23.18-19.51,23.81h-.18ZM105.42,173.38h.12c10.63-.57,16.72-11.95,17.86-22.29.82-7.84-1.18-14.65-5.48-18.66-5.04-4.85-12.86-3.14-17.22,1.24-4.82,4.53-7.79,11.39-8.37,19.31-.37,6.84,1.28,12.83,4.53,16.43,2.22,2.46,5.1,3.8,8.57,3.97ZM105.88,164.7c-.25,0-.49-.03-.74-.08-2.22-.48-3.75-3.13-4.2-7.28-.74-6.03,2.22-18.24,9.07-19.27h.09s.21,0,.21,0c3.12.54,3.97,4.31,4.34,5.92.91,4.98-.2,11.17-2.8,15.8-1.87,3.2-3.96,4.91-5.96,4.91ZM110.17,139.78c-5.47.95-8.19,11.95-7.53,17.37.35,3.28,1.45,5.5,2.87,5.81,1.4.3,3.22-1.2,4.87-4.01,2.42-4.29,3.44-10.04,2.61-14.61-.46-2.05-1.17-4.22-2.82-4.56Z"/>
    <path class="cls-1" d="M191.79,151.32h-.01c-5.52-.08-10.16-2.17-13.42-6.07-3.82-4.56-5.37-11.12-4.25-18,1.48-8.7,6.46-19.18,15.98-22.52,5.16-1.56,10.03-.34,13.08,3.27,3.11,3.68,3.52,9.03,1.07,13.97-2.57,5.93-7.88,9.43-11.87,11.32-.66.33-1.36.64-2.05.93-1.47.64-3,1.29-3.45,2.06-.63,1.08.68,2.13,1.52,2.66,1.81,1.11,4.38,1.3,7.05.53,2.72-.79,4.81-2.27,6.67-3.75,1.97-1.57,5.28-4.2,8.65-2.6l.11.06c2.44,1.63,2.79,3.52,2.65,4.81-.53,5.07-9.23,10.05-12.34,11.3-3.19,1.3-6.38,2.01-9.21,2.04h-.17ZM191.79,149.62h.15c2.61-.03,5.58-.69,8.59-1.91,3.84-1.54,10.89-6.16,11.28-9.9.13-1.21-.48-2.25-1.85-3.19-2.22-1-4.58.65-6.81,2.42-1.89,1.51-4.24,3.18-7.25,4.05-3.12.91-6.19.65-8.42-.72-2.28-1.44-3.06-3.29-2.09-4.97.74-1.25,2.44-1.98,4.24-2.76.66-.28,1.33-.57,1.98-.9,3.75-1.77,8.69-5.02,11.07-10.51,2.17-4.36,1.84-9-.83-12.15-2.6-3.07-6.8-4.1-11.25-2.75-8.8,3.09-13.5,13.35-14.83,21.19-1.04,6.39.37,12.45,3.88,16.63,2.94,3.5,7.13,5.39,12.14,5.46ZM186.29,125.96c-.61,0-.97-.26-1.19-.52-.83-1-.05-2.81.33-3.55,1.54-3.19,4.78-8.61,9.1-8.83h.06s.17.01.17.01c1.11.18,1.58.75,1.79,1.2.7,1.47-.38,3.59-1.44,5.46l-.12.21c-2,3.17-5.38,4.94-7.88,5.88-.32.09-.59.13-.83.13ZM194.56,114.77c-3.55.23-6.5,5.58-7.61,7.88-.33.66-.5,1.29-.52,1.6.04,0,.09-.02.15-.04,2.18-.83,5.23-2.41,6.95-5.14l.1-.18c.44-.77,1.76-3.1,1.38-3.89-.02-.04-.08-.18-.45-.24Z"/>
  </g>
</svg>